<svg xmlns="http://www.w3.org/2000/svg" xmlns:v="https://svgstorm.com"
viewBox = "0 0 1000 1000"
width="1000"
height="1000">
<g fill="None" fill-opacity="0.0" stroke="#000000" stroke-opacity="1.00" stroke-width="0.3"><path d="
M 0.00 1000.00 
L 1000.00 1000.00
L 1000.00 0.00
L 0.00 0.00
L 0.00 1000.00
M 827.00 195.00 
C 802.28 183.44 782.57 172.28 756.31 163.69 C 730.04 155.11 699.38 150.56 671.00 149.00 C 642.62 147.44 606.68 151.61 579.93 157.93 C 553.17 164.24 529.68 174.39 506.25 186.25 C 482.83 198.11 465.75 212.23 446.25 228.25 C 426.74 244.27 411.72 261.60 397.70 281.70 C 383.67 301.79 371.87 324.73 358.00 344.00
C 359.17 333.10 343.64 336.25 342.00 329.00
C 345.31 328.57 345.70 332.76 349.00 332.00
C 348.27 327.91 343.70 327.29 342.00 324.00
C 337.43 332.23 331.48 321.35 334.32 314.32 C 337.17 307.30 340.05 301.57 346.00 297.00
C 342.33 293.32 349.14 288.16 345.68 283.32 C 342.21 278.48 343.15 270.10 350.00 271.00
C 353.05 266.36 344.07 260.69 348.26 257.26 C 352.45 253.83 357.94 254.43 363.00 254.00
C 363.42 250.84 362.39 247.84 366.00 247.00
C 364.62 245.29 361.68 243.40 363.00 239.00
C 366.34 238.77 371.91 245.74 373.00 239.00
C 377.12 238.64 371.35 237.45 371.00 236.00
C 377.33 237.01 380.74 232.35 376.00 227.00
C 378.86 228.08 381.50 229.80 385.00 229.00
C 379.38 223.52 381.94 215.46 389.00 222.00
C 386.07 213.57 396.02 208.85 403.00 207.00
C 399.91 203.86 401.85 200.70 405.00 199.00
C 398.72 193.84 391.73 204.32 386.00 200.00
C 389.83 198.75 388.92 193.04 392.30 191.30 C 395.68 189.57 400.56 194.60 404.00 191.00
C 404.22 193.51 405.83 196.80 409.00 196.00
C 405.00 190.36 412.08 185.30 417.00 183.00
C 413.64 179.26 416.22 175.04 414.00 171.00
C 418.81 176.10 422.50 170.16 428.00 172.00
C 429.84 169.28 433.20 167.52 431.00 164.00
C 436.32 159.96 442.27 161.15 446.30 156.30 C 450.34 151.46 460.04 155.16 466.00 153.00 C 471.96 150.85 479.83 149.64 481.00 142.00
C 483.74 141.97 486.08 143.63 489.00 143.00
C 491.26 138.33 491.80 137.13 492.00 132.00
C 496.21 130.43 500.99 135.05 505.00 131.00
C 492.38 128.34 477.06 134.65 465.31 140.31 C 453.55 145.96 440.80 150.62 430.30 156.30 C 419.81 161.99 404.57 169.03 400.00 178.00
C 394.35 178.55 391.61 183.85 385.00 182.00
C 391.98 187.27 378.70 192.17 375.00 188.00
C 374.79 191.29 375.38 198.73 370.00 196.00
C 371.60 204.17 356.98 209.57 359.00 201.00
C 352.62 199.59 348.15 205.91 345.00 210.00
C 348.11 210.30 351.48 211.78 354.00 213.00
C 351.39 215.40 347.48 216.47 345.00 213.00
C 343.44 215.57 340.14 216.44 337.00 216.00
C 338.05 217.67 338.53 221.44 334.75 221.75 C 330.98 222.07 333.48 221.80 335.00 225.00
C 331.14 226.09 327.34 227.64 323.00 227.00
C 322.61 235.41 310.77 237.70 309.00 247.00
C 316.44 245.39 311.46 250.49 310.00 254.00
C 316.37 253.38 311.99 263.29 309.00 256.00
C 307.89 259.92 306.34 260.52 311.00 262.00
C 307.24 261.00 308.40 266.77 304.00 265.00
C 308.95 266.88 303.73 270.08 305.00 274.00
C 302.94 272.21 302.04 276.48 299.00 275.00
C 286.61 265.58 269.46 239.96 284.30 226.30 C 299.15 212.64 307.67 199.17 322.75 186.75 C 337.84 174.33 351.62 164.88 368.08 154.08 C 384.54 143.28 399.85 134.53 418.22 126.22 C 436.59 117.92 455.40 111.23 475.68 105.68 C 495.96 100.13 519.91 95.98 542.00 94.00 C 564.09 92.02 592.81 92.68 615.02 94.98 C 637.24 97.27 659.10 102.75 679.22 108.78 C 699.35 114.80 718.09 120.98 735.70 130.31 C 753.30 139.63 768.85 147.89 784.70 159.30 C 800.55 170.70 815.32 179.58 827.00 195.00
M 326.00 333.00 
C 329.95 336.38 333.40 340.40 337.00 344.00
C 347.49 352.96 359.02 364.12 373.00 354.00
C 365.35 362.94 346.82 365.40 350.00 381.00
C 350.00 385.08 349.32 389.66 349.00 393.00
C 349.00 396.67 349.00 400.33 349.00 404.00
C 349.55 409.67 349.54 416.40 349.00 422.00
C 349.00 459.18 348.47 497.55 349.00 534.00
C 349.08 539.66 349.00 545.34 349.00 551.00
C 349.00 578.29 354.88 611.23 360.33 636.67 C 365.78 662.12 372.33 688.75 382.77 711.23 C 393.21 733.71 397.42 758.04 416.00 775.00
C 418.66 776.02 421.41 777.10 420.00 772.00
C 411.40 766.02 410.85 752.49 404.75 742.25 C 398.64 732.02 397.18 720.50 393.02 708.98 C 388.87 697.45 383.26 687.29 381.75 675.25 C 380.24 663.22 376.03 647.73 377.00 636.00
C 401.51 684.21 431.94 724.66 479.23 757.77 C 526.52 790.88 590.14 811.82 650.22 811.22 C 710.31 810.62 772.83 796.32 823.00 763.00
C 798.04 788.37 774.43 804.44 742.31 820.31 C 710.18 836.17 674.95 848.77 637.98 854.98 C 601.00 861.18 547.14 862.94 510.33 855.67 C 473.52 848.40 436.99 838.40 405.31 821.70 C 373.62 804.99 348.26 789.10 322.75 765.25 C 297.24 741.39 275.87 720.19 257.25 691.75 C 238.62 663.31 219.10 630.40 215.00 597.00
C 221.13 600.68 224.94 610.46 229.92 615.08 C 234.90 619.70 239.04 633.91 244.00 626.00
C 247.08 629.71 248.57 634.03 251.00 638.00
C 255.90 633.63 257.74 643.32 255.00 646.00
C 257.36 644.32 260.35 647.28 261.00 643.00
C 265.73 646.93 270.60 643.20 276.00 647.00
C 277.33 655.17 281.32 659.98 286.30 665.70 C 291.29 671.41 290.92 683.95 300.00 685.00
C 298.93 687.33 299.22 689.08 301.00 691.00
C 303.16 682.81 308.18 695.83 311.30 700.70 C 314.43 705.57 320.65 712.76 324.75 717.25 C 328.86 721.74 326.78 731.09 336.00 732.00
C 335.21 728.33 331.51 724.61 333.00 721.00
C 339.58 730.69 353.14 740.49 353.00 751.00
C 363.33 748.61 371.87 755.65 376.70 763.30 C 381.54 770.94 391.01 774.11 395.00 781.00
C 396.89 780.01 402.12 781.89 400.00 778.00
C 404.63 780.48 406.86 786.69 414.00 786.00
C 408.69 780.27 405.41 774.94 397.75 771.25 C 390.10 767.55 388.74 757.44 382.00 759.00
C 376.97 753.83 372.32 743.46 365.00 745.00
C 366.85 742.25 363.41 740.98 364.00 738.00
C 372.56 730.38 359.78 721.60 357.07 710.93 C 354.37 700.26 341.23 694.28 346.00 682.00
C 338.63 678.16 336.43 668.38 334.01 659.99 C 331.59 651.60 326.82 642.06 326.00 633.00
C 329.94 638.51 327.54 631.22 327.07 627.93 C 326.60 624.64 324.60 621.05 326.00 617.00
C 330.02 619.48 329.45 625.88 334.00 628.00
C 331.47 633.53 336.84 637.41 337.00 643.00
C 345.55 640.60 344.69 652.52 337.00 649.00
C 340.55 654.56 344.94 656.81 345.78 664.22 C 346.62 671.63 352.20 676.18 356.00 680.00
C 352.84 686.53 362.35 690.05 365.23 694.77 C 368.12 699.49 369.77 708.44 373.30 712.70 C 376.84 716.95 379.40 727.40 382.00 726.00
C 356.98 675.39 344.70 614.76 323.69 563.31 C 302.69 511.85 278.43 465.38 242.00 424.00
C 242.00 433.67 242.00 443.33 242.00 453.00
C 242.52 458.35 242.51 464.72 242.00 470.00
C 242.00 494.00 242.00 518.00 242.00 542.00
C 242.30 545.14 242.30 548.92 242.00 552.00
C 242.00 562.31 243.75 567.00 247.31 576.69 C 250.87 586.39 255.28 588.28 259.31 578.31 C 263.33 568.33 263.77 564.07 266.00 554.00
C 266.37 552.31 266.06 549.84 268.00 549.00
C 267.44 551.52 269.19 555.30 267.00 557.00
C 263.48 578.68 264.31 601.04 258.00 622.00
C 253.35 618.15 248.78 613.63 245.00 609.00
C 240.69 604.69 235.94 600.61 232.00 596.00
C 225.09 587.92 217.81 580.10 210.00 573.00
C 147.92 670.02 88.40 768.77 23.00 864.00
C 21.11 866.76 19.59 870.02 17.00 872.00
C 16.91 868.92 19.42 866.23 21.00 864.00
C 31.19 850.43 39.16 836.34 47.92 821.92 C 56.68 807.50 65.14 792.34 73.77 777.77 C 82.40 763.21 90.65 748.96 99.30 734.30 C 107.96 719.64 116.60 705.10 125.25 690.25 C 133.90 675.41 142.44 661.31 151.30 646.30 C 160.17 631.30 167.15 618.19 176.75 602.75 C 186.36 587.32 191.68 574.17 201.32 557.32 C 210.96 540.47 208.29 516.78 209.00 496.00 C 209.71 475.22 206.73 446.85 209.00 426.00 C 211.27 405.15 194.98 386.33 178.00 405.00
C 189.39 381.64 201.99 358.60 215.00 336.00
C 253.33 375.06 285.75 418.99 316.00 463.00
C 314.88 456.89 314.86 450.44 315.00 444.00
C 313.75 431.11 314.00 416.61 314.00 403.00
C 314.00 386.61 314.96 367.59 305.08 354.92 C 295.19 342.26 291.61 332.16 284.08 318.92 C 276.54 305.69 271.75 293.99 266.22 279.78 C 260.69 265.56 256.11 251.48 253.07 235.93 C 250.03 220.37 247.00 200.57 247.00 184.00
C 246.60 179.91 246.61 175.02 247.00 171.00
C 247.00 168.16 246.21 164.02 248.00 162.00
C 252.72 225.70 281.40 286.33 326.00 333.00
M 692.00 242.00 
C 690.99 237.65 687.93 239.84 685.00 241.00
C 682.06 235.11 680.34 230.01 680.00 223.00 C 679.66 215.99 680.27 207.61 680.78 200.78 C 681.29 193.95 682.69 188.59 685.77 182.77 C 688.85 176.95 692.41 169.66 693.00 179.00 C 693.59 188.35 690.98 191.91 692.98 200.02 C 694.97 208.14 693.08 212.39 694.00 220.00 C 694.92 227.61 691.95 234.56 692.00 242.00
M 408.00 175.00 
C 410.53 176.20 407.56 180.22 405.32 178.66 C 403.08 177.10 405.80 173.95 408.00 175.00
M 406.00 183.00 
C 403.90 187.68 397.97 179.85 406.00 183.00
M 778.00 191.00 
C 783.38 219.51 783.90 248.64 785.00 280.00 C 786.10 311.36 785.09 346.72 788.00 377.00
C 782.13 376.85 780.11 383.55 774.00 383.00
C 767.00 368.82 769.51 353.77 771.00 338.00 C 772.49 322.23 771.95 302.82 772.00 286.00 C 772.05 269.18 771.06 252.00 772.00 236.00 C 772.94 220.00 763.95 200.72 778.00 191.00
M 575.00 202.00 
C 572.03 207.17 573.19 214.98 574.00 223.00 C 574.81 231.02 575.03 241.16 575.01 249.01 C 574.99 256.85 576.60 262.04 567.00 266.00
C 559.79 241.48 568.27 218.08 567.00 193.00
C 573.12 192.00 571.23 200.05 575.00 202.00
M 531.00 197.00 
C 527.37 205.57 532.36 211.50 533.00 221.00 C 533.64 230.50 535.54 240.65 534.00 250.00
C 521.54 247.07 523.71 231.31 523.67 222.33 C 523.63 213.35 516.02 191.50 531.00 197.00
M 896.00 199.00 
C 896.43 200.97 898.13 204.14 895.00 205.00
C 893.56 203.28 893.40 199.71 896.00 199.00
M 893.00 326.00 
C 885.75 316.30 890.21 302.66 889.00 290.00 C 887.79 277.34 888.92 263.67 888.00 251.00 C 887.08 238.33 891.29 225.61 892.00 214.00
C 896.97 230.68 896.49 252.20 897.00 271.00 C 897.51 289.80 897.73 308.84 893.00 326.00
M 197.00 262.00 
C 204.15 267.70 200.78 278.38 202.00 286.00
C 195.40 288.75 186.33 288.32 188.35 280.30 C 190.37 272.29 191.76 263.85 191.00 256.00 C 190.24 248.15 192.43 236.29 192.00 230.00 C 191.56 223.71 190.96 212.79 196.30 218.70 C 201.64 224.62 198.26 232.93 199.02 239.03 C 199.78 245.12 198.79 255.90 197.00 262.00
M 454.00 275.00 
C 452.19 286.19 450.44 297.16 451.00 309.00 C 451.56 320.84 449.81 331.23 450.00 343.00 C 450.19 354.77 452.70 362.62 451.00 375.00 C 449.30 387.38 456.12 396.21 452.22 409.22 C 448.32 422.23 437.19 409.33 440.00 398.00 C 442.81 386.67 438.94 374.78 440.00 363.00 C 441.06 351.22 441.63 340.93 441.98 329.98 C 442.32 319.02 439.20 306.03 440.00 295.00 C 440.80 283.97 440.92 272.12 443.93 261.93 C 446.93 251.73 446.56 245.36 450.00 234.00
C 455.74 240.05 449.68 250.58 451.78 257.22 C 453.88 263.86 442.43 278.69 454.00 275.00
M 325.00 244.00 
C 317.56 245.69 324.36 237.36 325.00 244.00
M 853.00 414.00 
C 834.08 416.14 844.15 389.78 842.00 376.00 C 839.85 362.22 839.94 344.77 840.67 330.33 C 841.40 315.89 842.71 298.01 843.00 283.00 C 843.29 267.99 848.27 255.90 850.00 243.00
C 853.97 259.47 849.43 275.27 850.78 294.22 C 852.12 313.17 853.62 332.23 853.00 352.00 C 852.38 371.77 853.16 393.53 853.00 414.00
M 688.00 248.00 
C 687.44 250.52 689.19 254.30 687.00 256.00
C 686.67 254.49 686.37 249.60 688.00 248.00
M 251.00 269.00 
C 255.10 276.79 255.89 288.14 259.30 295.70 C 262.71 303.25 270.12 315.05 260.00 320.00
C 255.96 325.27 264.05 341.27 255.00 338.00
C 256.23 341.49 256.69 347.72 251.00 347.00
C 252.68 344.06 253.18 343.41 250.00 343.00
C 246.46 340.82 250.10 345.61 248.00 347.00
C 242.98 345.16 240.38 341.08 239.00 336.00
C 233.02 338.37 228.63 330.72 222.77 326.23 C 216.90 321.74 225.28 312.31 227.78 306.78 C 230.27 301.24 234.60 293.19 238.75 287.75 C 242.91 282.32 244.75 273.37 251.00 269.00
M 199.00 301.00 
C 201.46 302.17 199.37 307.38 196.32 305.66 C 193.27 303.94 196.69 299.91 199.00 301.00
M 611.00 386.00 
C 611.42 388.58 612.06 391.77 612.00 395.00
C 611.24 432.73 593.31 475.77 558.00 492.00
C 556.91 488.16 560.20 485.62 560.00 482.00
C 557.93 483.70 555.59 484.55 553.00 485.00
C 602.77 441.81 614.41 359.11 572.00 307.00
C 594.16 327.87 608.29 356.07 611.00 386.00
M 391.00 346.00 
C 392.98 338.86 395.25 330.73 400.00 325.00
C 403.41 332.68 394.88 340.10 391.00 346.00
M 893.00 327.00 
C 896.20 327.78 894.38 333.68 890.92 332.92 C 887.47 332.16 889.72 326.20 893.00 327.00
M 894.00 334.00 
C 892.67 344.30 894.51 356.90 893.00 369.00
C 887.62 366.90 890.73 355.49 888.07 349.93 C 885.41 344.36 888.29 335.16 894.00 334.00
M 893.00 378.00 
C 893.36 380.49 891.20 382.56 889.00 383.00
C 889.97 381.15 890.79 378.76 893.00 378.00
M 891.00 392.00 
C 888.38 390.28 891.65 387.37 891.00 385.00
C 893.09 386.37 894.22 391.01 891.00 392.00
M 371.00 392.00 
C 373.18 399.48 371.95 406.77 369.00 415.00
C 367.25 408.70 365.69 396.55 371.00 392.00
M 183.00 519.00 
C 180.22 512.01 179.25 503.19 180.00 495.00 C 180.75 486.81 178.75 475.88 180.00 468.00 C 181.25 460.12 180.12 450.14 181.99 442.99 C 183.86 435.84 181.18 424.35 189.00 424.00
C 188.15 420.89 190.81 418.85 191.00 416.00
C 188.88 425.75 190.70 438.04 188.00 449.00 C 185.30 459.96 185.79 471.41 186.00 483.00 C 186.21 494.59 185.45 508.70 183.00 519.00
M 782.00 455.00 
C 779.16 452.15 778.42 452.24 777.00 457.00
C 764.51 450.77 765.99 432.65 774.00 423.00
C 790.96 422.42 792.43 446.27 782.00 455.00
M 695.00 431.00 
C 694.41 433.84 696.23 437.98 694.00 440.00
C 694.19 432.81 689.29 437.63 691.00 431.00
C 692.15 433.39 693.21 432.18 695.00 431.00
M 898.00 441.00 
C 898.78 452.09 887.45 459.13 887.07 471.07 C 886.69 483.02 885.49 497.98 886.00 511.00 C 886.51 524.02 885.77 538.60 886.00 552.00 C 886.23 565.40 885.90 579.41 886.00 593.00 C 886.10 606.59 885.96 620.26 886.00 634.00 C 886.04 647.74 886.00 662.20 886.00 676.00
C 886.32 679.29 887.73 682.59 886.00 686.00
C 881.92 694.08 867.63 695.69 860.31 701.30 C 852.98 706.92 841.10 710.66 832.92 715.92 C 824.74 721.17 814.91 725.29 806.30 730.30 C 797.69 735.32 787.91 740.06 779.25 745.25 C 770.60 750.45 761.44 754.44 752.77 759.77 C 744.10 765.10 734.12 769.14 725.31 774.31 C 716.49 779.47 708.15 784.45 698.92 788.92 C 689.70 793.40 680.66 799.85 671.00 803.00
C 680.30 796.47 691.11 792.10 700.70 785.70 C 710.28 779.29 720.22 774.08 730.23 768.23 C 740.24 762.38 750.02 755.96 760.23 750.23 C 770.43 744.50 778.87 738.18 789.23 732.23 C 799.59 726.28 807.78 719.72 818.75 713.75 C 829.71 707.78 835.18 701.47 847.75 695.75 C 860.31 690.02 861.03 673.29 859.00 659.00
C 793.61 691.15 732.29 732.64 669.00 769.00
C 667.63 772.19 662.38 772.78 660.00 775.00
C 660.75 771.03 666.12 770.32 669.00 768.00
C 727.99 727.01 791.17 690.22 851.00 650.00
C 830.23 637.21 804.20 623.38 779.00 633.00
C 778.05 629.40 784.86 624.68 788.00 622.00
C 791.65 618.88 797.27 614.97 799.00 611.00
C 801.67 601.28 798.31 589.20 799.00 579.00 C 799.69 568.80 799.26 556.58 800.00 547.00
C 799.74 534.14 787.03 528.27 776.00 535.00
C 790.53 516.28 811.97 503.87 826.00 485.00
C 826.76 509.77 825.47 537.11 826.00 563.00
C 827.09 574.31 827.09 587.76 826.00 599.00
C 826.00 609.12 830.71 610.32 839.08 612.92 C 847.44 615.52 850.27 618.91 858.00 622.00
C 857.90 608.26 858.59 594.25 858.00 580.00 C 857.41 565.75 859.25 548.96 858.00 535.00 C 856.75 521.04 857.93 510.31 866.77 500.77 C 875.61 491.23 876.99 482.25 882.92 471.92 C 888.86 461.60 892.18 451.62 897.00 441.00
C 897.85 438.83 898.73 435.33 901.00 435.00
C 899.59 436.81 900.17 439.84 898.00 441.00
M 713.00 506.00 
C 717.67 506.00 722.33 506.00 727.00 506.00
C 745.01 506.00 764.04 500.66 776.00 487.00
C 775.83 490.12 772.15 491.86 772.00 495.00
C 769.72 498.50 766.08 501.37 763.00 504.00
C 745.03 519.35 734.23 538.89 722.70 559.70 C 711.16 580.50 697.25 599.65 687.00 621.00
C 703.77 620.68 718.28 631.46 734.22 633.78 C 750.17 636.09 761.22 615.66 764.00 603.00
C 764.36 601.27 763.41 598.47 766.00 598.00
C 764.50 600.94 767.43 604.57 765.00 607.00
C 763.50 616.60 760.54 625.41 756.08 634.08 C 751.62 642.74 746.69 646.97 741.75 655.75 C 736.80 664.53 730.34 668.77 722.30 661.70 C 714.27 654.62 706.86 654.00 697.78 650.22 C 688.70 646.44 677.97 644.20 668.00 644.00
C 664.61 643.93 660.67 643.26 658.00 643.00
C 643.80 643.00 630.90 644.84 619.00 652.00
C 627.67 637.04 645.79 633.14 655.25 619.25 C 664.72 605.37 673.37 590.51 682.30 576.30 C 691.24 562.10 698.42 545.62 710.00 534.00
C 694.85 529.98 678.93 528.39 663.93 521.07 C 648.93 513.75 637.76 534.73 635.00 547.00
C 632.32 536.93 637.90 526.17 641.77 516.77 C 645.64 507.37 650.09 499.70 656.30 491.30 C 662.52 482.91 672.83 494.39 681.70 497.31 C 690.56 500.22 702.47 507.45 713.00 506.00
M 512.00 533.00 
C 510.81 546.13 512.21 560.53 511.00 573.00
C 511.00 590.66 506.25 621.89 534.00 616.00
C 527.52 620.79 519.73 624.89 512.31 628.31 C 504.89 631.72 497.91 638.24 490.75 641.75 C 483.59 645.27 479.46 654.30 472.75 657.75 C 466.05 661.20 460.37 647.51 453.25 644.75 C 446.14 641.99 438.26 635.53 429.33 634.67 C 420.40 633.81 407.08 630.96 398.00 635.00
C 405.81 626.05 417.42 621.50 417.00 607.00 C 416.58 592.50 416.69 573.57 417.00 559.00 C 417.31 544.43 417.84 528.85 400.00 528.00
C 409.69 521.66 419.98 515.12 430.23 509.23 C 440.48 503.34 448.78 493.25 459.00 488.00
C 471.71 511.01 502.18 517.11 526.00 510.00
C 519.92 516.83 512.69 523.60 512.00 533.00
M 571.00 646.00 
C 571.00 637.98 571.30 629.26 572.00 622.00
C 572.00 613.00 572.00 604.00 572.00 595.00
C 570.75 582.07 571.01 566.85 572.00 554.00
C 571.70 539.18 561.42 529.61 547.00 538.00
C 562.48 518.33 583.21 502.88 603.00 489.00
C 594.15 503.52 599.79 519.18 598.00 536.00 C 596.21 552.82 600.76 570.76 598.00 588.00 C 595.24 605.25 609.30 617.07 623.00 602.00
C 612.38 626.02 586.46 641.41 570.00 661.00
C 572.13 656.48 570.48 650.94 571.00 646.00
M 286.00 637.00 
C 279.33 635.57 284.47 630.60 286.00 637.00
M 294.00 658.00 
C 286.97 658.53 287.71 650.69 285.00 647.00
C 290.25 647.67 293.91 652.62 294.00 658.00
M 307.00 679.00 
C 306.18 682.73 307.59 684.79 310.00 687.00
C 305.09 687.96 299.88 679.73 307.00 679.00
M 875.00 713.00 
C 879.94 720.73 879.14 732.14 879.00 741.00 C 878.86 749.86 879.65 762.65 879.00 771.00 C 878.35 779.35 882.00 794.94 871.00 794.00 C 860.00 793.06 868.60 776.23 867.98 768.98 C 867.35 761.72 867.71 748.30 868.98 739.98 C 870.24 731.65 868.38 719.12 875.00 713.00
M 361.00 738.00 
C 359.02 736.46 356.09 734.74 356.00 732.00
C 358.18 732.51 360.55 735.60 361.00 738.00
M 291.00 736.00 
C 291.75 745.90 292.30 757.58 292.99 768.01 C 293.68 778.44 292.97 791.39 294.00 801.00 C 295.03 810.62 296.86 823.25 296.98 832.02 C 297.10 840.80 301.17 859.46 290.32 858.66 C 279.47 857.87 280.96 842.26 282.00 833.00 C 283.04 823.74 283.63 809.06 284.00 799.00 C 284.37 788.94 284.90 776.51 285.00 766.00 C 285.10 755.49 282.57 741.05 291.00 736.00
M 809.00 796.00 
C 811.42 810.07 815.61 821.56 815.00 836.00 C 814.38 850.45 816.27 868.59 816.00 883.00 C 815.73 897.41 820.23 912.64 812.00 924.00
C 795.18 923.29 804.31 903.79 803.07 889.92 C 801.83 876.06 804.87 855.77 804.00 841.00 C 803.13 826.23 803.81 808.60 809.00 796.00 Z"/>
</g>
<g fill="None" fill-opacity="0.0" stroke="#6D42A8" stroke-opacity="1.00" stroke-width="0.3"><path d="
M 827.00 195.00 
C 815.32 179.58 800.55 170.70 784.70 159.30 C 768.85 147.89 753.30 139.63 735.70 130.31 C 718.09 120.98 699.35 114.80 679.22 108.78 C 659.10 102.75 637.24 97.27 615.02 94.98 C 592.81 92.68 564.09 92.02 542.00 94.00 C 519.91 95.98 495.96 100.13 475.68 105.68 C 455.40 111.23 436.59 117.92 418.22 126.22 C 399.85 134.53 384.54 143.28 368.08 154.08 C 351.62 164.88 337.84 174.33 322.75 186.75 C 307.67 199.17 299.15 212.64 284.30 226.30 C 269.46 239.96 286.61 265.58 299.00 275.00
C 302.04 276.48 302.94 272.21 305.00 274.00
C 303.73 270.08 308.95 266.88 304.00 265.00
C 308.40 266.77 307.24 261.00 311.00 262.00
C 306.34 260.52 307.89 259.92 309.00 256.00
C 311.99 263.29 316.37 253.38 310.00 254.00
C 311.46 250.49 316.44 245.39 309.00 247.00
C 310.77 237.70 322.61 235.41 323.00 227.00
C 327.34 227.64 331.14 226.09 335.00 225.00
C 333.48 221.80 330.98 222.07 334.75 221.75 C 338.53 221.44 338.05 217.67 337.00 216.00
C 340.14 216.44 343.44 215.57 345.00 213.00
C 347.48 216.47 351.39 215.40 354.00 213.00
C 351.48 211.78 348.11 210.30 345.00 210.00
C 348.15 205.91 352.62 199.59 359.00 201.00
C 356.98 209.57 371.60 204.17 370.00 196.00
C 375.38 198.73 374.79 191.29 375.00 188.00
C 378.70 192.17 391.98 187.27 385.00 182.00
C 391.61 183.85 394.35 178.55 400.00 178.00
C 404.57 169.03 419.81 161.99 430.30 156.30 C 440.80 150.62 453.55 145.96 465.31 140.31 C 477.06 134.65 492.38 128.34 505.00 131.00
C 500.99 135.05 496.21 130.43 492.00 132.00
C 491.80 137.13 491.26 138.33 489.00 143.00
C 486.08 143.63 483.74 141.97 481.00 142.00
C 479.83 149.64 471.96 150.85 466.00 153.00 C 460.04 155.16 450.34 151.46 446.30 156.30 C 442.27 161.15 436.32 159.96 431.00 164.00
C 433.20 167.52 429.84 169.28 428.00 172.00
C 422.50 170.16 418.81 176.10 414.00 171.00
C 416.22 175.04 413.64 179.26 417.00 183.00
C 412.08 185.30 405.00 190.36 409.00 196.00
C 405.83 196.80 404.22 193.51 404.00 191.00
C 400.56 194.60 395.68 189.57 392.30 191.30 C 388.92 193.04 389.83 198.75 386.00 200.00
C 391.73 204.32 398.72 193.84 405.00 199.00
C 401.85 200.70 399.91 203.86 403.00 207.00
C 396.02 208.85 386.07 213.57 389.00 222.00
C 381.94 215.46 379.38 223.52 385.00 229.00
C 381.50 229.80 378.86 228.08 376.00 227.00
C 380.74 232.35 377.33 237.01 371.00 236.00
C 371.35 237.45 377.12 238.64 373.00 239.00
C 371.91 245.74 366.34 238.77 363.00 239.00
C 361.68 243.40 364.62 245.29 366.00 247.00
C 362.39 247.84 363.42 250.84 363.00 254.00
C 357.94 254.43 352.45 253.83 348.26 257.26 C 344.07 260.69 353.05 266.36 350.00 271.00
C 343.15 270.10 342.21 278.48 345.68 283.32 C 349.14 288.16 342.33 293.32 346.00 297.00
C 340.05 301.57 337.17 307.30 334.32 314.32 C 331.48 321.35 337.43 332.23 342.00 324.00
C 343.70 327.29 348.27 327.91 349.00 332.00
C 345.70 332.76 345.31 328.57 342.00 329.00
C 343.64 336.25 359.17 333.10 358.00 344.00
C 371.87 324.73 383.67 301.79 397.70 281.70 C 411.72 261.60 426.74 244.27 446.25 228.25 C 465.75 212.23 482.83 198.11 506.25 186.25 C 529.68 174.39 553.17 164.24 579.93 157.93 C 606.68 151.61 642.62 147.44 671.00 149.00 C 699.38 150.56 730.04 155.11 756.31 163.69 C 782.57 172.28 802.28 183.44 827.00 195.00
M 392.00 176.00 
C 390.59 178.58 388.16 180.75 385.00 180.00
C 387.08 176.96 387.95 176.28 392.00 176.00
M 296.00 265.00 
C 294.90 255.94 305.90 264.21 296.00 265.00 Z"/>
</g>
<g fill="None" fill-opacity="0.0" stroke="#DDDFE3" stroke-opacity="1.00" stroke-width="0.3"><path d="
M 247.00 171.00 
C 247.00 175.33 247.00 179.67 247.00 184.00
C 247.00 200.57 250.03 220.37 253.07 235.93 C 256.11 251.48 260.69 265.56 266.22 279.78 C 271.75 293.99 276.54 305.69 284.08 318.92 C 291.61 332.16 295.19 342.26 305.08 354.92 C 314.96 367.59 314.00 386.61 314.00 403.00
C 315.25 415.89 315.00 430.39 315.00 444.00
C 314.86 450.44 314.88 456.89 316.00 463.00
C 285.75 418.99 253.33 375.06 215.00 336.00
C 201.99 358.60 189.39 381.64 178.00 405.00
C 194.98 386.33 211.27 405.15 209.00 426.00 C 206.73 446.85 209.71 475.22 209.00 496.00 C 208.29 516.78 210.96 540.47 201.32 557.32 C 191.68 574.17 186.36 587.32 176.75 602.75 C 167.15 618.19 160.17 631.30 151.30 646.30 C 142.44 661.31 133.90 675.41 125.25 690.25 C 116.60 705.10 107.96 719.64 99.30 734.30 C 90.65 748.96 82.40 763.21 73.77 777.77 C 65.14 792.34 56.68 807.50 47.92 821.92 C 39.16 836.34 31.19 850.43 21.00 864.00
C 20.74 864.12 22.28 864.47 23.00 864.00
C 88.40 768.77 147.92 670.02 210.00 573.00
C 217.81 580.10 225.09 587.92 232.00 596.00
C 236.31 600.31 241.06 604.39 245.00 609.00
C 248.78 613.63 253.35 618.15 258.00 622.00
C 264.31 601.04 263.48 578.68 267.00 557.00
C 266.92 555.78 266.09 554.62 266.00 554.00
C 263.77 564.07 263.33 568.33 259.31 578.31 C 255.28 588.28 250.87 586.39 247.31 576.69 C 243.75 567.00 242.00 562.31 242.00 552.00
C 242.00 548.67 242.00 545.33 242.00 542.00
C 242.00 518.00 242.00 494.00 242.00 470.00
C 242.00 464.33 242.00 458.67 242.00 453.00
C 242.00 443.33 242.00 433.67 242.00 424.00
C 278.43 465.38 302.69 511.85 323.69 563.31 C 344.70 614.76 356.98 675.39 382.00 726.00
C 386.06 734.21 392.40 744.85 397.75 752.25 C 403.11 759.64 408.64 772.18 416.00 775.00
C 397.42 758.04 393.21 733.71 382.77 711.23 C 372.33 688.75 365.78 662.12 360.33 636.67 C 354.88 611.23 349.00 578.29 349.00 551.00
C 348.48 545.64 348.47 539.29 349.00 534.00
C 348.47 497.55 349.00 459.18 349.00 422.00
C 349.00 416.00 349.00 410.00 349.00 404.00
C 349.00 400.33 349.00 396.67 349.00 393.00
C 349.00 388.92 349.68 384.34 350.00 381.00
C 346.82 365.40 365.35 362.94 373.00 354.00
C 359.02 364.12 347.49 352.96 337.00 344.00
C 333.05 340.62 329.60 336.60 326.00 333.00
C 281.40 286.33 252.72 225.70 248.00 162.00
C 246.21 164.02 247.00 168.16 247.00 171.00 Z"/>
</g>
<g fill="None" fill-opacity="0.0" stroke="#6D42A8" stroke-opacity="1.00" stroke-width="0.3"><path d="
M 247.00 184.00 
C 247.00 179.67 247.00 175.33 247.00 171.00
C 246.61 175.02 246.60 179.91 247.00 184.00 Z"/>
</g>
<g fill="None" fill-opacity="0.0" stroke="#6D42A8" stroke-opacity="1.00" stroke-width="0.3"><path d="
M 692.00 242.00 
C 691.95 234.56 694.92 227.61 694.00 220.00 C 693.08 212.39 694.97 208.14 692.98 200.02 C 690.98 191.91 693.59 188.35 693.00 179.00 C 692.41 169.66 688.85 176.95 685.77 182.77 C 682.69 188.59 681.29 193.95 680.78 200.78 C 680.27 207.61 679.66 215.99 680.00 223.00 C 680.34 230.01 682.06 235.11 685.00 241.00
C 687.93 239.84 690.99 237.65 692.00 242.00 Z"/>
</g>
<g fill="None" fill-opacity="0.0" stroke="#6D42A8" stroke-opacity="1.00" stroke-width="0.3"><path d="
M 408.00 175.00 
C 405.80 173.95 403.08 177.10 405.32 178.66 C 407.56 180.22 410.53 176.20 408.00 175.00 Z"/>
</g>
<g fill="None" fill-opacity="0.0" stroke="#000000" stroke-opacity="1.00" stroke-width="0.3"><path d="
M 392.00 176.00 
C 387.95 176.28 387.08 176.96 385.00 180.00
C 388.16 180.75 390.59 178.58 392.00 176.00 Z"/>
</g>
<g fill="None" fill-opacity="0.0" stroke="#6D42A8" stroke-opacity="1.00" stroke-width="0.3"><path d="
M 406.00 183.00 
C 397.97 179.85 403.90 187.68 406.00 183.00 Z"/>
</g>
<g fill="None" fill-opacity="0.0" stroke="#6D42A8" stroke-opacity="1.00" stroke-width="0.3"><path d="
M 778.00 191.00 
C 763.95 200.72 772.94 220.00 772.00 236.00 C 771.06 252.00 772.05 269.18 772.00 286.00 C 771.95 302.82 772.49 322.23 771.00 338.00 C 769.51 353.77 767.00 368.82 774.00 383.00
C 780.11 383.55 782.13 376.85 788.00 377.00
C 785.09 346.72 786.10 311.36 785.00 280.00 C 783.90 248.64 783.38 219.51 778.00 191.00 Z"/>
</g>
<g fill="None" fill-opacity="0.0" stroke="#6D42A8" stroke-opacity="1.00" stroke-width="0.3"><path d="
M 575.00 202.00 
C 571.23 200.05 573.12 192.00 567.00 193.00
C 568.27 218.08 559.79 241.48 567.00 266.00
C 576.60 262.04 574.99 256.85 575.01 249.01 C 575.03 241.16 574.81 231.02 574.00 223.00 C 573.19 214.98 572.03 207.17 575.00 202.00 Z"/>
</g>
<g fill="None" fill-opacity="0.0" stroke="#6D42A8" stroke-opacity="1.00" stroke-width="0.3"><path d="
M 531.00 197.00 
C 516.02 191.50 523.63 213.35 523.67 222.33 C 523.71 231.31 521.54 247.07 534.00 250.00
C 535.54 240.65 533.64 230.50 533.00 221.00 C 532.36 211.50 527.37 205.57 531.00 197.00 Z"/>
</g>
<g fill="None" fill-opacity="0.0" stroke="#6D42A8" stroke-opacity="1.00" stroke-width="0.3"><path d="
M 896.00 199.00 
C 893.40 199.71 893.56 203.28 895.00 205.00
C 898.13 204.14 896.43 200.97 896.00 199.00 Z"/>
</g>
<g fill="None" fill-opacity="0.0" stroke="#6D42A8" stroke-opacity="1.00" stroke-width="0.3"><path d="
M 893.00 326.00 
C 897.73 308.84 897.51 289.80 897.00 271.00 C 896.49 252.20 896.97 230.68 892.00 214.00
C 891.29 225.61 887.08 238.33 888.00 251.00 C 888.92 263.67 887.79 277.34 889.00 290.00 C 890.21 302.66 885.75 316.30 893.00 326.00 Z"/>
</g>
<g fill="None" fill-opacity="0.0" stroke="#6D42A8" stroke-opacity="1.00" stroke-width="0.3"><path d="
M 197.00 262.00 
C 198.79 255.90 199.78 245.12 199.02 239.03 C 198.26 232.93 201.64 224.62 196.30 218.70 C 190.96 212.79 191.56 223.71 192.00 230.00 C 192.43 236.29 190.24 248.15 191.00 256.00 C 191.76 263.85 190.37 272.29 188.35 280.30 C 186.33 288.32 195.40 288.75 202.00 286.00
C 200.78 278.38 204.15 267.70 197.00 262.00 Z"/>
</g>
<g fill="None" fill-opacity="0.0" stroke="#6D42A8" stroke-opacity="1.00" stroke-width="0.3"><path d="
M 454.00 275.00 
C 442.43 278.69 453.88 263.86 451.78 257.22 C 449.68 250.58 455.74 240.05 450.00 234.00
C 446.56 245.36 446.93 251.73 443.93 261.93 C 440.92 272.12 440.80 283.97 440.00 295.00 C 439.20 306.03 442.32 319.02 441.98 329.98 C 441.63 340.93 441.06 351.22 440.00 363.00 C 438.94 374.78 442.81 386.67 440.00 398.00 C 437.19 409.33 448.32 422.23 452.22 409.22 C 456.12 396.21 449.30 387.38 451.00 375.00 C 452.70 362.62 450.19 354.77 450.00 343.00 C 449.81 331.23 451.56 320.84 451.00 309.00 C 450.44 297.16 452.19 286.19 454.00 275.00 Z"/>
</g>
<g fill="None" fill-opacity="0.0" stroke="#6D42A8" stroke-opacity="1.00" stroke-width="0.3"><path d="
M 325.00 244.00 
C 324.36 237.36 317.56 245.69 325.00 244.00 Z"/>
</g>
<g fill="None" fill-opacity="0.0" stroke="#6D42A8" stroke-opacity="1.00" stroke-width="0.3"><path d="
M 853.00 414.00 
C 853.16 393.53 852.38 371.77 853.00 352.00 C 853.62 332.23 852.12 313.17 850.78 294.22 C 849.43 275.27 853.97 259.47 850.00 243.00
C 848.27 255.90 843.29 267.99 843.00 283.00 C 842.71 298.01 841.40 315.89 840.67 330.33 C 839.94 344.77 839.85 362.22 842.00 376.00 C 844.15 389.78 834.08 416.14 853.00 414.00 Z"/>
</g>
<g fill="None" fill-opacity="0.0" stroke="#6D42A8" stroke-opacity="1.00" stroke-width="0.3"><path d="
M 688.00 248.00 
C 686.37 249.60 686.67 254.49 687.00 256.00
C 689.19 254.30 687.44 250.52 688.00 248.00 Z"/>
</g>
<g fill="None" fill-opacity="0.0" stroke="#000000" stroke-opacity="1.00" stroke-width="0.3"><path d="
M 296.00 265.00 
C 305.90 264.21 294.90 255.94 296.00 265.00 Z"/>
</g>
<g fill="None" fill-opacity="0.0" stroke="#6D42A8" stroke-opacity="1.00" stroke-width="0.3"><path d="
M 251.00 269.00 
C 244.75 273.37 242.91 282.32 238.75 287.75 C 234.60 293.19 230.27 301.24 227.78 306.78 C 225.28 312.31 216.90 321.74 222.77 326.23 C 228.63 330.72 233.02 338.37 239.00 336.00
C 240.38 341.08 242.98 345.16 248.00 347.00
C 250.10 345.61 246.46 340.82 250.00 343.00
C 253.18 343.41 252.68 344.06 251.00 347.00
C 256.69 347.72 256.23 341.49 255.00 338.00
C 264.05 341.27 255.96 325.27 260.00 320.00
C 270.12 315.05 262.71 303.25 259.30 295.70 C 255.89 288.14 255.10 276.79 251.00 269.00
M 254.00 323.00 
C 254.63 325.42 254.68 328.99 253.00 331.00
C 251.87 328.91 250.51 323.16 254.00 323.00 Z"/>
</g>
<g fill="None" fill-opacity="0.0" stroke="#6D42A8" stroke-opacity="1.00" stroke-width="0.3"><path d="
M 199.00 301.00 
C 196.69 299.91 193.27 303.94 196.32 305.66 C 199.37 307.38 201.46 302.17 199.00 301.00 Z"/>
</g>
<g fill="None" fill-opacity="0.0" stroke="#DDDFE3" stroke-opacity="1.00" stroke-width="0.3"><path d="
M 612.00 395.00 
C 611.82 392.71 611.16 388.93 611.00 386.00
C 608.29 356.07 594.16 327.87 572.00 307.00
C 614.41 359.11 602.77 441.81 553.00 485.00
C 555.59 484.55 557.93 483.70 560.00 482.00
C 560.20 485.62 556.91 488.16 558.00 492.00
C 593.31 475.77 611.24 432.73 612.00 395.00 Z"/>
</g>
<g fill="None" fill-opacity="0.0" stroke="#000000" stroke-opacity="1.00" stroke-width="0.3"><path d="
M 254.00 323.00 
C 250.51 323.16 251.87 328.91 253.00 331.00
C 254.68 328.99 254.63 325.42 254.00 323.00 Z"/>
</g>
<g fill="None" fill-opacity="0.0" stroke="#6D42A8" stroke-opacity="1.00" stroke-width="0.3"><path d="
M 391.00 346.00 
C 394.88 340.10 403.41 332.68 400.00 325.00
C 395.25 330.73 392.98 338.86 391.00 346.00 Z"/>
</g>
<g fill="None" fill-opacity="0.0" stroke="#6D42A8" stroke-opacity="1.00" stroke-width="0.3"><path d="
M 893.00 327.00 
C 889.72 326.20 887.47 332.16 890.92 332.92 C 894.38 333.68 896.20 327.78 893.00 327.00 Z"/>
</g>
<g fill="None" fill-opacity="0.0" stroke="#6D42A8" stroke-opacity="1.00" stroke-width="0.3"><path d="
M 337.00 344.00 
C 333.40 340.40 329.95 336.38 326.00 333.00
C 329.60 336.60 333.05 340.62 337.00 344.00 Z"/>
</g>
<g fill="None" fill-opacity="0.0" stroke="#6D42A8" stroke-opacity="1.00" stroke-width="0.3"><path d="
M 894.00 334.00 
C 888.29 335.16 885.41 344.36 888.07 349.93 C 890.73 355.49 887.62 366.90 893.00 369.00
C 894.51 356.90 892.67 344.30 894.00 334.00 Z"/>
</g>
<g fill="None" fill-opacity="0.0" stroke="#6D42A8" stroke-opacity="1.00" stroke-width="0.3"><path d="
M 893.00 378.00 
C 890.79 378.76 889.97 381.15 889.00 383.00
C 891.20 382.56 893.36 380.49 893.00 378.00 Z"/>
</g>
<g fill="None" fill-opacity="0.0" stroke="#6D42A8" stroke-opacity="1.00" stroke-width="0.3"><path d="
M 349.00 393.00 
C 349.32 389.66 350.00 385.08 350.00 381.00
C 349.68 384.34 349.00 388.92 349.00 393.00 Z"/>
</g>
<g fill="None" fill-opacity="0.0" stroke="#6D42A8" stroke-opacity="1.00" stroke-width="0.3"><path d="
M 891.00 392.00 
C 894.22 391.01 893.09 386.37 891.00 385.00
C 891.65 387.37 888.38 390.28 891.00 392.00 Z"/>
</g>
<g fill="None" fill-opacity="0.0" stroke="#6D42A8" stroke-opacity="1.00" stroke-width="0.3"><path d="
M 612.00 395.00 
C 612.06 391.77 611.42 388.58 611.00 386.00
C 611.16 388.93 611.82 392.71 612.00 395.00 Z"/>
</g>
<g fill="None" fill-opacity="0.0" stroke="#6D42A8" stroke-opacity="1.00" stroke-width="0.3"><path d="
M 371.00 392.00 
C 365.69 396.55 367.25 408.70 369.00 415.00
C 371.95 406.77 373.18 399.48 371.00 392.00 Z"/>
</g>
<g fill="None" fill-opacity="0.0" stroke="#6D42A8" stroke-opacity="1.00" stroke-width="0.3"><path d="
M 315.00 444.00 
C 315.00 430.39 315.25 415.89 314.00 403.00
C 314.00 416.61 313.75 431.11 315.00 444.00 Z"/>
</g>
<g fill="None" fill-opacity="0.0" stroke="#6D42A8" stroke-opacity="1.00" stroke-width="0.3"><path d="
M 349.00 422.00 
C 349.54 416.40 349.55 409.67 349.00 404.00
C 349.00 410.00 349.00 416.00 349.00 422.00 Z"/>
</g>
<g fill="None" fill-opacity="0.0" stroke="#6D42A8" stroke-opacity="1.00" stroke-width="0.3"><path d="
M 183.00 519.00 
C 185.45 508.70 186.21 494.59 186.00 483.00 C 185.79 471.41 185.30 459.96 188.00 449.00 C 190.70 438.04 188.88 425.75 191.00 416.00
C 190.81 418.85 188.15 420.89 189.00 424.00
C 181.18 424.35 183.86 435.84 181.99 442.99 C 180.12 450.14 181.25 460.12 180.00 468.00 C 178.75 475.88 180.75 486.81 180.00 495.00 C 179.25 503.19 180.22 512.01 183.00 519.00 Z"/>
</g>
<g fill="None" fill-opacity="0.0" stroke="#6D42A8" stroke-opacity="1.00" stroke-width="0.3"><path d="
M 782.00 455.00 
C 792.43 446.27 790.96 422.42 774.00 423.00
C 765.99 432.65 764.51 450.77 777.00 457.00
C 778.42 452.24 779.16 452.15 782.00 455.00 Z"/>
</g>
<g fill="None" fill-opacity="0.0" stroke="#6D42A8" stroke-opacity="1.00" stroke-width="0.3"><path d="
M 695.00 431.00 
C 693.21 432.18 692.15 433.39 691.00 431.00
C 689.29 437.63 694.19 432.81 694.00 440.00
C 696.23 437.98 694.41 433.84 695.00 431.00 Z"/>
</g>
<g fill="None" fill-opacity="0.0" stroke="#6D42A8" stroke-opacity="1.00" stroke-width="0.3"><path d="
M 897.00 441.00 
C 897.06 440.84 898.00 441.00 898.00 441.00
C 900.17 439.84 899.59 436.81 901.00 435.00
C 898.73 435.33 897.85 438.83 897.00 441.00 Z"/>
</g>
<g fill="None" fill-opacity="0.0" stroke="#DDDFE3" stroke-opacity="1.00" stroke-width="0.3"><path d="
M 826.00 599.00 
C 826.00 587.00 826.00 575.00 826.00 563.00
C 825.47 537.11 826.76 509.77 826.00 485.00
C 811.97 503.87 790.53 516.28 776.00 535.00
C 787.03 528.27 799.74 534.14 800.00 547.00
C 800.20 557.18 800.85 568.96 800.00 579.00 C 799.15 589.04 802.82 602.25 799.00 611.00
C 797.27 614.97 791.65 618.88 788.00 622.00
C 784.78 625.22 780.81 629.10 779.00 633.00
C 804.20 623.38 830.23 637.21 851.00 650.00
C 791.17 690.22 727.99 727.01 669.00 768.00
C 668.77 768.16 669.00 769.00 669.00 769.00
C 732.29 732.64 793.61 691.15 859.00 659.00
C 861.03 673.29 860.31 690.02 847.75 695.75 C 835.18 701.47 829.71 707.78 818.75 713.75 C 807.78 719.72 799.59 726.28 789.23 732.23 C 778.87 738.18 770.43 744.50 760.23 750.23 C 750.02 755.96 740.24 762.38 730.23 768.23 C 720.22 774.08 710.28 779.29 700.70 785.70 C 691.11 792.10 680.30 796.47 671.00 803.00
C 680.66 799.85 689.70 793.40 698.92 788.92 C 708.15 784.45 716.49 779.47 725.31 774.31 C 734.12 769.14 744.10 765.10 752.77 759.77 C 761.44 754.44 770.60 750.45 779.25 745.25 C 787.91 740.06 797.69 735.32 806.30 730.30 C 814.91 725.29 824.74 721.17 832.92 715.92 C 841.10 710.66 852.98 706.92 860.31 701.30 C 867.63 695.69 881.92 694.08 886.00 686.00
C 886.88 683.33 886.00 678.84 886.00 676.00
C 886.00 662.20 886.04 647.74 886.00 634.00 C 885.96 620.26 886.10 606.59 886.00 593.00 C 885.90 579.41 886.23 565.40 886.00 552.00 C 885.77 538.60 886.51 524.02 886.00 511.00 C 885.49 497.98 886.69 483.02 887.07 471.07 C 887.45 459.13 898.78 452.09 898.00 441.00
C 898.00 441.00 897.06 440.84 897.00 441.00
C 892.18 451.62 888.86 461.60 882.92 471.92 C 876.99 482.25 875.61 491.23 866.77 500.77 C 857.93 510.31 856.75 521.04 858.00 535.00 C 859.25 548.96 857.41 565.75 858.00 580.00 C 858.59 594.25 857.90 608.26 858.00 622.00
C 850.27 618.91 847.44 615.52 839.08 612.92 C 830.71 610.32 826.00 609.12 826.00 599.00 Z"/>
</g>
<g fill="None" fill-opacity="0.0" stroke="#6D42A8" stroke-opacity="1.00" stroke-width="0.3"><path d="
M 242.00 470.00 
C 242.51 464.72 242.52 458.35 242.00 453.00
C 242.00 458.67 242.00 464.33 242.00 470.00 Z"/>
</g>
<g fill="None" fill-opacity="0.0" stroke="#DDDFE3" stroke-opacity="1.00" stroke-width="0.3"><path d="
M 658.00 643.00 
C 661.47 643.00 665.25 643.67 668.00 644.00
C 677.97 644.20 688.70 646.44 697.78 650.22 C 706.86 654.00 714.27 654.62 722.30 661.70 C 730.34 668.77 736.80 664.53 741.75 655.75 C 746.69 646.97 751.62 642.74 756.08 634.08 C 760.54 625.41 763.50 616.60 765.00 607.00
C 765.02 605.43 764.09 603.86 764.00 603.00
C 761.22 615.66 750.17 636.09 734.22 633.78 C 718.28 631.46 703.77 620.68 687.00 621.00
C 697.25 599.65 711.16 580.50 722.70 559.70 C 734.23 538.89 745.03 519.35 763.00 504.00
C 765.68 501.32 769.79 497.89 772.00 495.00
C 772.15 491.86 775.83 490.12 776.00 487.00
C 764.04 500.66 745.01 506.00 727.00 506.00
C 722.59 506.43 717.34 506.42 713.00 506.00
C 702.47 507.45 690.56 500.22 681.70 497.31 C 672.83 494.39 662.52 482.91 656.30 491.30 C 650.09 499.70 645.64 507.37 641.77 516.77 C 637.90 526.17 632.32 536.93 635.00 547.00
C 637.76 534.73 648.93 513.75 663.93 521.07 C 678.93 528.39 694.85 529.98 710.00 534.00
C 698.42 545.62 691.24 562.10 682.30 576.30 C 673.37 590.51 664.72 605.37 655.25 619.25 C 645.79 633.14 627.67 637.04 619.00 652.00
C 630.90 644.84 643.80 643.00 658.00 643.00 Z"/>
</g>
<g fill="None" fill-opacity="0.0" stroke="#DDDFE3" stroke-opacity="1.00" stroke-width="0.3"><path d="
M 511.00 573.00 
C 511.00 560.07 509.51 545.03 512.00 533.00
C 512.69 523.60 519.92 516.83 526.00 510.00
C 502.18 517.11 471.71 511.01 459.00 488.00
C 448.78 493.25 440.48 503.34 430.23 509.23 C 419.98 515.12 409.69 521.66 400.00 528.00
C 417.84 528.85 417.31 544.43 417.00 559.00 C 416.69 573.57 416.58 592.50 417.00 607.00 C 417.42 621.50 405.81 626.05 398.00 635.00
C 407.08 630.96 420.40 633.81 429.33 634.67 C 438.26 635.53 446.14 641.99 453.25 644.75 C 460.37 647.51 466.05 661.20 472.75 657.75 C 479.46 654.30 483.59 645.27 490.75 641.75 C 497.91 638.24 504.89 631.72 512.31 628.31 C 519.73 624.89 527.52 620.79 534.00 616.00
C 506.25 621.89 511.00 590.66 511.00 573.00
M 483.00 540.00 
C 485.11 544.82 483.45 551.30 483.00 556.00
C 483.00 566.50 482.48 575.33 483.00 586.00 C 483.52 596.67 481.25 603.99 484.00 615.00 C 486.75 626.01 475.59 625.84 468.92 620.08 C 462.26 614.31 452.60 617.87 446.93 612.07 C 441.26 606.28 446.01 592.55 445.00 584.00 C 443.99 575.45 445.00 562.00 445.00 553.00
C 445.00 547.00 445.00 541.00 445.00 535.00
C 445.00 531.00 445.00 527.00 445.00 523.00
C 457.11 529.29 473.12 532.02 483.00 540.00 Z"/>
</g>
<g fill="None" fill-opacity="0.0" stroke="#DDDFE3" stroke-opacity="1.00" stroke-width="0.3"><path d="
M 572.00 554.00 
C 572.27 567.65 572.00 581.34 572.00 595.00
C 572.00 604.00 572.00 613.00 572.00 622.00
C 572.00 630.02 571.70 638.74 571.00 646.00
C 570.48 650.94 572.13 656.48 570.00 661.00
C 586.46 641.41 612.38 626.02 623.00 602.00
C 609.30 617.07 595.24 605.25 598.00 588.00 C 600.76 570.76 596.21 552.82 598.00 536.00 C 599.79 519.18 594.15 503.52 603.00 489.00
C 583.21 502.88 562.48 518.33 547.00 538.00
C 561.42 529.61 571.70 539.18 572.00 554.00 Z"/>
</g>
<g fill="None" fill-opacity="0.0" stroke="#6D42A8" stroke-opacity="1.00" stroke-width="0.3"><path d="
M 763.00 504.00 
C 766.08 501.37 769.72 498.50 772.00 495.00
C 769.79 497.89 765.68 501.32 763.00 504.00 Z"/>
</g>
<g fill="None" fill-opacity="0.0" stroke="#6D42A8" stroke-opacity="1.00" stroke-width="0.3"><path d="
M 727.00 506.00 
C 722.33 506.00 717.67 506.00 713.00 506.00
C 717.34 506.42 722.59 506.43 727.00 506.00 Z"/>
</g>
<g fill="None" fill-opacity="0.0" stroke="#000000" stroke-opacity="1.00" stroke-width="0.3"><path d="
M 445.00 535.00 
C 445.55 540.67 445.54 547.40 445.00 553.00
C 445.00 562.00 443.99 575.45 445.00 584.00 C 446.01 592.55 441.26 606.28 446.93 612.07 C 452.60 617.87 462.26 614.31 468.92 620.08 C 475.59 625.84 486.75 626.01 484.00 615.00 C 481.25 603.99 483.52 596.67 483.00 586.00 C 482.48 575.33 483.00 566.50 483.00 556.00
C 483.00 551.26 484.25 544.55 483.00 540.00
C 473.12 532.02 457.11 529.29 445.00 523.00
C 445.00 527.00 445.00 531.00 445.00 535.00 Z"/>
</g>
<g fill="None" fill-opacity="0.0" stroke="#6D42A8" stroke-opacity="1.00" stroke-width="0.3"><path d="
M 511.00 573.00 
C 512.21 560.53 510.81 546.13 512.00 533.00
C 509.51 545.03 511.00 560.07 511.00 573.00 Z"/>
</g>
<g fill="None" fill-opacity="0.0" stroke="#6D42A8" stroke-opacity="1.00" stroke-width="0.3"><path d="
M 349.00 551.00 
C 349.00 545.34 349.08 539.66 349.00 534.00
C 348.47 539.29 348.48 545.64 349.00 551.00 Z"/>
</g>
<g fill="None" fill-opacity="0.0" stroke="#6D42A8" stroke-opacity="1.00" stroke-width="0.3"><path d="
M 445.00 553.00 
C 445.54 547.40 445.55 540.67 445.00 535.00
C 445.00 541.00 445.00 547.00 445.00 553.00 Z"/>
</g>
<g fill="None" fill-opacity="0.0" stroke="#6D42A8" stroke-opacity="1.00" stroke-width="0.3"><path d="
M 483.00 556.00 
C 483.45 551.30 485.11 544.82 483.00 540.00
C 484.25 544.55 483.00 551.26 483.00 556.00 Z"/>
</g>
<g fill="None" fill-opacity="0.0" stroke="#6D42A8" stroke-opacity="1.00" stroke-width="0.3"><path d="
M 242.00 552.00 
C 242.30 548.92 242.30 545.14 242.00 542.00
C 242.00 545.33 242.00 548.67 242.00 552.00 Z"/>
</g>
<g fill="None" fill-opacity="0.0" stroke="#6D42A8" stroke-opacity="1.00" stroke-width="0.3"><path d="
M 799.00 611.00 
C 802.82 602.25 799.15 589.04 800.00 579.00 C 800.85 568.96 800.20 557.18 800.00 547.00
C 799.26 556.58 799.69 568.80 799.00 579.00 C 798.31 589.20 801.67 601.28 799.00 611.00 Z"/>
</g>
<g fill="None" fill-opacity="0.0" stroke="#6D42A8" stroke-opacity="1.00" stroke-width="0.3"><path d="
M 266.00 554.00 
C 266.09 554.62 266.92 555.78 267.00 557.00
C 269.19 555.30 267.44 551.52 268.00 549.00
C 266.06 549.84 266.37 552.31 266.00 554.00 Z"/>
</g>
<g fill="None" fill-opacity="0.0" stroke="#6D42A8" stroke-opacity="1.00" stroke-width="0.3"><path d="
M 572.00 595.00 
C 572.00 581.34 572.27 567.65 572.00 554.00
C 571.01 566.85 570.75 582.07 572.00 595.00 Z"/>
</g>
<g fill="None" fill-opacity="0.0" stroke="#6D42A8" stroke-opacity="1.00" stroke-width="0.3"><path d="
M 826.00 599.00 
C 827.09 587.76 827.09 574.31 826.00 563.00
C 826.00 575.00 826.00 587.00 826.00 599.00 Z"/>
</g>
<g fill="None" fill-opacity="0.0" stroke="#6D42A8" stroke-opacity="1.00" stroke-width="0.3"><path d="
M 245.00 609.00 
C 241.06 604.39 236.31 600.31 232.00 596.00
C 235.94 600.61 240.69 604.69 245.00 609.00 Z"/>
</g>
<g fill="None" fill-opacity="0.0" stroke="#6D42A8" stroke-opacity="1.00" stroke-width="0.3"><path d="
M 416.00 775.00 
C 408.64 772.18 403.11 759.64 397.75 752.25 C 392.40 744.85 386.06 734.21 382.00 726.00
C 379.40 727.40 376.84 716.95 373.30 712.70 C 369.77 708.44 368.12 699.49 365.23 694.77 C 362.35 690.05 352.84 686.53 356.00 680.00
C 352.20 676.18 346.62 671.63 345.78 664.22 C 344.94 656.81 340.55 654.56 337.00 649.00
C 344.69 652.52 345.55 640.60 337.00 643.00
C 336.84 637.41 331.47 633.53 334.00 628.00
C 329.45 625.88 330.02 619.48 326.00 617.00
C 324.60 621.05 326.60 624.64 327.07 627.93 C 327.54 631.22 329.94 638.51 326.00 633.00
C 326.82 642.06 331.59 651.60 334.01 659.99 C 336.43 668.38 338.63 678.16 346.00 682.00
C 341.23 694.28 354.37 700.26 357.07 710.93 C 359.78 721.60 372.56 730.38 364.00 738.00
C 363.41 740.98 366.85 742.25 365.00 745.00
C 372.32 743.46 376.97 753.83 382.00 759.00
C 388.74 757.44 390.10 767.55 397.75 771.25 C 405.41 774.94 408.69 780.27 414.00 786.00
C 406.86 786.69 404.63 780.48 400.00 778.00
C 402.12 781.89 396.89 780.01 395.00 781.00
C 391.01 774.11 381.54 770.94 376.70 763.30 C 371.87 755.65 363.33 748.61 353.00 751.00
C 353.14 740.49 339.58 730.69 333.00 721.00
C 331.51 724.61 335.21 728.33 336.00 732.00
C 326.78 731.09 328.86 721.74 324.75 717.25 C 320.65 712.76 314.43 705.57 311.30 700.70 C 308.18 695.83 303.16 682.81 301.00 691.00
C 299.22 689.08 298.93 687.33 300.00 685.00
C 290.92 683.95 291.29 671.41 286.30 665.70 C 281.32 659.98 277.33 655.17 276.00 647.00
C 270.60 643.20 265.73 646.93 261.00 643.00
C 260.35 647.28 257.36 644.32 255.00 646.00
C 257.74 643.32 255.90 633.63 251.00 638.00
C 248.57 634.03 247.08 629.71 244.00 626.00
C 239.04 633.91 234.90 619.70 229.92 615.08 C 224.94 610.46 221.13 600.68 215.00 597.00
C 219.10 630.40 238.62 663.31 257.25 691.75 C 275.87 720.19 297.24 741.39 322.75 765.25 C 348.26 789.10 373.62 804.99 405.31 821.70 C 436.99 838.40 473.52 848.40 510.33 855.67 C 547.14 862.94 601.00 861.18 637.98 854.98 C 674.95 848.77 710.18 836.17 742.31 820.31 C 774.43 804.44 798.04 788.37 823.00 763.00
C 772.83 796.32 710.31 810.62 650.22 811.22 C 590.14 811.82 526.52 790.88 479.23 757.77 C 431.94 724.66 401.51 684.21 377.00 636.00
C 376.03 647.73 380.24 663.22 381.75 675.25 C 383.26 687.29 388.87 697.45 393.02 708.98 C 397.18 720.50 398.64 732.02 404.75 742.25 C 410.85 752.49 411.40 766.02 420.00 772.00
C 421.41 777.10 418.66 776.02 416.00 775.00 Z"/>
</g>
<g fill="None" fill-opacity="0.0" stroke="#6D42A8" stroke-opacity="1.00" stroke-width="0.3"><path d="
M 764.00 603.00 
C 764.09 603.86 765.02 605.43 765.00 607.00
C 767.43 604.57 764.50 600.94 766.00 598.00
C 763.41 598.47 764.36 601.27 764.00 603.00 Z"/>
</g>
<g fill="None" fill-opacity="0.0" stroke="#6D42A8" stroke-opacity="1.00" stroke-width="0.3"><path d="
M 571.00 646.00 
C 571.70 638.74 572.00 630.02 572.00 622.00
C 571.30 629.26 571.00 637.98 571.00 646.00 Z"/>
</g>
<g fill="None" fill-opacity="0.0" stroke="#6D42A8" stroke-opacity="1.00" stroke-width="0.3"><path d="
M 779.00 633.00 
C 780.81 629.10 784.78 625.22 788.00 622.00
C 784.86 624.68 778.05 629.40 779.00 633.00 Z"/>
</g>
<g fill="None" fill-opacity="0.0" stroke="#6D42A8" stroke-opacity="1.00" stroke-width="0.3"><path d="
M 286.00 637.00 
C 284.47 630.60 279.33 635.57 286.00 637.00 Z"/>
</g>
<g fill="None" fill-opacity="0.0" stroke="#6D42A8" stroke-opacity="1.00" stroke-width="0.3"><path d="
M 668.00 644.00 
C 665.25 643.67 661.47 643.00 658.00 643.00
C 660.67 643.26 664.61 643.93 668.00 644.00 Z"/>
</g>
<g fill="None" fill-opacity="0.0" stroke="#6D42A8" stroke-opacity="1.00" stroke-width="0.3"><path d="
M 294.00 658.00 
C 293.91 652.62 290.25 647.67 285.00 647.00
C 287.71 650.69 286.97 658.53 294.00 658.00 Z"/>
</g>
<g fill="None" fill-opacity="0.0" stroke="#6D42A8" stroke-opacity="1.00" stroke-width="0.3"><path d="
M 886.00 686.00 
C 887.73 682.59 886.32 679.29 886.00 676.00
C 886.00 678.84 886.88 683.33 886.00 686.00 Z"/>
</g>
<g fill="None" fill-opacity="0.0" stroke="#6D42A8" stroke-opacity="1.00" stroke-width="0.3"><path d="
M 307.00 679.00 
C 299.88 679.73 305.09 687.96 310.00 687.00
C 307.59 684.79 306.18 682.73 307.00 679.00 Z"/>
</g>
<g fill="None" fill-opacity="0.0" stroke="#6D42A8" stroke-opacity="1.00" stroke-width="0.3"><path d="
M 875.00 713.00 
C 868.38 719.12 870.24 731.65 868.98 739.98 C 867.71 748.30 867.35 761.72 867.98 768.98 C 868.60 776.23 860.00 793.06 871.00 794.00 C 882.00 794.94 878.35 779.35 879.00 771.00 C 879.65 762.65 878.86 749.86 879.00 741.00 C 879.14 732.14 879.94 720.73 875.00 713.00 Z"/>
</g>
<g fill="None" fill-opacity="0.0" stroke="#6D42A8" stroke-opacity="1.00" stroke-width="0.3"><path d="
M 361.00 738.00 
C 360.55 735.60 358.18 732.51 356.00 732.00
C 356.09 734.74 359.02 736.46 361.00 738.00 Z"/>
</g>
<g fill="None" fill-opacity="0.0" stroke="#6D42A8" stroke-opacity="1.00" stroke-width="0.3"><path d="
M 291.00 736.00 
C 282.57 741.05 285.10 755.49 285.00 766.00 C 284.90 776.51 284.37 788.94 284.00 799.00 C 283.63 809.06 283.04 823.74 282.00 833.00 C 280.96 842.26 279.47 857.87 290.32 858.66 C 301.17 859.46 297.10 840.80 296.98 832.02 C 296.86 823.25 295.03 810.62 294.00 801.00 C 292.97 791.39 293.68 778.44 292.99 768.01 C 292.30 757.58 291.75 745.90 291.00 736.00 Z"/>
</g>
<g fill="None" fill-opacity="0.0" stroke="#6D42A8" stroke-opacity="1.00" stroke-width="0.3"><path d="
M 669.00 769.00 
C 669.00 769.00 668.77 768.16 669.00 768.00
C 666.12 770.32 660.75 771.03 660.00 775.00
C 662.38 772.78 667.63 772.19 669.00 769.00 Z"/>
</g>
<g fill="None" fill-opacity="0.0" stroke="#6D42A8" stroke-opacity="1.00" stroke-width="0.3"><path d="
M 809.00 796.00 
C 803.81 808.60 803.13 826.23 804.00 841.00 C 804.87 855.77 801.83 876.06 803.07 889.92 C 804.31 903.79 795.18 923.29 812.00 924.00
C 820.23 912.64 815.73 897.41 816.00 883.00 C 816.27 868.59 814.38 850.45 815.00 836.00 C 815.61 821.56 811.42 810.07 809.00 796.00 Z"/>
</g>
<g fill="None" fill-opacity="0.0" stroke="#6D42A8" stroke-opacity="1.00" stroke-width="0.3"><path d="
M 23.00 864.00 
C 22.28 864.47 20.74 864.12 21.00 864.00
C 19.42 866.23 16.91 868.92 17.00 872.00
C 19.59 870.02 21.11 866.76 23.00 864.00 Z"/>
</g>
<g fill="#000000" fill-opacity="1.00" stroke="None">
<path d="
M 0.00 1000.00 
L 1000.00 1000.00
L 1000.00 0.00
L 0.00 0.00
L 0.00 1000.00
M 827.00 195.00 
C 802.28 183.44 782.57 172.28 756.31 163.69 C 730.04 155.11 699.38 150.56 671.00 149.00 C 642.62 147.44 606.68 151.61 579.93 157.93 C 553.17 164.24 529.68 174.39 506.25 186.25 C 482.83 198.11 465.75 212.23 446.25 228.25 C 426.74 244.27 411.72 261.60 397.70 281.70 C 383.67 301.79 371.87 324.73 358.00 344.00
C 359.17 333.10 343.64 336.25 342.00 329.00
C 345.31 328.57 345.70 332.76 349.00 332.00
C 348.27 327.91 343.70 327.29 342.00 324.00
C 337.43 332.23 331.48 321.35 334.32 314.32 C 337.17 307.30 340.05 301.57 346.00 297.00
C 342.33 293.32 349.14 288.16 345.68 283.32 C 342.21 278.48 343.15 270.10 350.00 271.00
C 353.05 266.36 344.07 260.69 348.26 257.26 C 352.45 253.83 357.94 254.43 363.00 254.00
C 363.42 250.84 362.39 247.84 366.00 247.00
C 364.62 245.29 361.68 243.40 363.00 239.00
C 366.34 238.77 371.91 245.74 373.00 239.00
C 377.12 238.64 371.35 237.45 371.00 236.00
C 377.33 237.01 380.74 232.35 376.00 227.00
C 378.86 228.08 381.50 229.80 385.00 229.00
C 379.38 223.52 381.94 215.46 389.00 222.00
C 386.07 213.57 396.02 208.85 403.00 207.00
C 399.91 203.86 401.85 200.70 405.00 199.00
C 398.72 193.84 391.73 204.32 386.00 200.00
C 389.83 198.75 388.92 193.04 392.30 191.30 C 395.68 189.57 400.56 194.60 404.00 191.00
C 404.22 193.51 405.83 196.80 409.00 196.00
C 405.00 190.36 412.08 185.30 417.00 183.00
C 413.64 179.26 416.22 175.04 414.00 171.00
C 418.81 176.10 422.50 170.16 428.00 172.00
C 429.84 169.28 433.20 167.52 431.00 164.00
C 436.32 159.96 442.27 161.15 446.30 156.30 C 450.34 151.46 460.04 155.16 466.00 153.00 C 471.96 150.85 479.83 149.64 481.00 142.00
C 483.74 141.97 486.08 143.63 489.00 143.00
C 491.26 138.33 491.80 137.13 492.00 132.00
C 496.21 130.43 500.99 135.05 505.00 131.00
C 492.38 128.34 477.06 134.65 465.31 140.31 C 453.55 145.96 440.80 150.62 430.30 156.30 C 419.81 161.99 404.57 169.03 400.00 178.00
C 394.35 178.55 391.61 183.85 385.00 182.00
C 391.98 187.27 378.70 192.17 375.00 188.00
C 374.79 191.29 375.38 198.73 370.00 196.00
C 371.60 204.17 356.98 209.57 359.00 201.00
C 352.62 199.59 348.15 205.91 345.00 210.00
C 348.11 210.30 351.48 211.78 354.00 213.00
C 351.39 215.40 347.48 216.47 345.00 213.00
C 343.44 215.57 340.14 216.44 337.00 216.00
C 338.05 217.67 338.53 221.44 334.75 221.75 C 330.98 222.07 333.48 221.80 335.00 225.00
C 331.14 226.09 327.34 227.64 323.00 227.00
C 322.61 235.41 310.77 237.70 309.00 247.00
C 316.44 245.39 311.46 250.49 310.00 254.00
C 316.37 253.38 311.99 263.29 309.00 256.00
C 307.89 259.92 306.34 260.52 311.00 262.00
C 307.24 261.00 308.40 266.77 304.00 265.00
C 308.95 266.88 303.73 270.08 305.00 274.00
C 302.94 272.21 302.04 276.48 299.00 275.00
C 286.61 265.58 269.46 239.96 284.30 226.30 C 299.15 212.64 307.67 199.17 322.75 186.75 C 337.84 174.33 351.62 164.88 368.08 154.08 C 384.54 143.28 399.85 134.53 418.22 126.22 C 436.59 117.92 455.40 111.23 475.68 105.68 C 495.96 100.13 519.91 95.98 542.00 94.00 C 564.09 92.02 592.81 92.68 615.02 94.98 C 637.24 97.27 659.10 102.75 679.22 108.78 C 699.35 114.80 718.09 120.98 735.70 130.31 C 753.30 139.63 768.85 147.89 784.70 159.30 C 800.55 170.70 815.32 179.58 827.00 195.00
M 326.00 333.00 
C 329.95 336.38 333.40 340.40 337.00 344.00
C 347.49 352.96 359.02 364.12 373.00 354.00
C 365.35 362.94 346.82 365.40 350.00 381.00
C 350.00 385.08 349.32 389.66 349.00 393.00
C 349.00 396.67 349.00 400.33 349.00 404.00
C 349.55 409.67 349.54 416.40 349.00 422.00
C 349.00 459.18 348.47 497.55 349.00 534.00
C 349.08 539.66 349.00 545.34 349.00 551.00
C 349.00 578.29 354.88 611.23 360.33 636.67 C 365.78 662.12 372.33 688.75 382.77 711.23 C 393.21 733.71 397.42 758.04 416.00 775.00
C 418.66 776.02 421.41 777.10 420.00 772.00
C 411.40 766.02 410.85 752.49 404.75 742.25 C 398.64 732.02 397.18 720.50 393.02 708.98 C 388.87 697.45 383.26 687.29 381.75 675.25 C 380.24 663.22 376.03 647.73 377.00 636.00
C 401.51 684.21 431.94 724.66 479.23 757.77 C 526.52 790.88 590.14 811.82 650.22 811.22 C 710.31 810.62 772.83 796.32 823.00 763.00
C 798.04 788.37 774.43 804.44 742.31 820.31 C 710.18 836.17 674.95 848.77 637.98 854.98 C 601.00 861.18 547.14 862.94 510.33 855.67 C 473.52 848.40 436.99 838.40 405.31 821.70 C 373.62 804.99 348.26 789.10 322.75 765.25 C 297.24 741.39 275.87 720.19 257.25 691.75 C 238.62 663.31 219.10 630.40 215.00 597.00
C 221.13 600.68 224.94 610.46 229.92 615.08 C 234.90 619.70 239.04 633.91 244.00 626.00
C 247.08 629.71 248.57 634.03 251.00 638.00
C 255.90 633.63 257.74 643.32 255.00 646.00
C 257.36 644.32 260.35 647.28 261.00 643.00
C 265.73 646.93 270.60 643.20 276.00 647.00
C 277.33 655.17 281.32 659.98 286.30 665.70 C 291.29 671.41 290.92 683.95 300.00 685.00
C 298.93 687.33 299.22 689.08 301.00 691.00
C 303.16 682.81 308.18 695.83 311.30 700.70 C 314.43 705.57 320.65 712.76 324.75 717.25 C 328.86 721.74 326.78 731.09 336.00 732.00
C 335.21 728.33 331.51 724.61 333.00 721.00
C 339.58 730.69 353.14 740.49 353.00 751.00
C 363.33 748.61 371.87 755.65 376.70 763.30 C 381.54 770.94 391.01 774.11 395.00 781.00
C 396.89 780.01 402.12 781.89 400.00 778.00
C 404.63 780.48 406.86 786.69 414.00 786.00
C 408.69 780.27 405.41 774.94 397.75 771.25 C 390.10 767.55 388.74 757.44 382.00 759.00
C 376.97 753.83 372.32 743.46 365.00 745.00
C 366.85 742.25 363.41 740.98 364.00 738.00
C 372.56 730.38 359.78 721.60 357.07 710.93 C 354.37 700.26 341.23 694.28 346.00 682.00
C 338.63 678.16 336.43 668.38 334.01 659.99 C 331.59 651.60 326.82 642.06 326.00 633.00
C 329.94 638.51 327.54 631.22 327.07 627.93 C 326.60 624.64 324.60 621.05 326.00 617.00
C 330.02 619.48 329.45 625.88 334.00 628.00
C 331.47 633.53 336.84 637.41 337.00 643.00
C 345.55 640.60 344.69 652.52 337.00 649.00
C 340.55 654.56 344.94 656.81 345.78 664.22 C 346.62 671.63 352.20 676.18 356.00 680.00
C 352.84 686.53 362.35 690.05 365.23 694.77 C 368.12 699.49 369.77 708.44 373.30 712.70 C 376.84 716.95 379.40 727.40 382.00 726.00
C 356.98 675.39 344.70 614.76 323.69 563.31 C 302.69 511.85 278.43 465.38 242.00 424.00
C 242.00 433.67 242.00 443.33 242.00 453.00
C 242.52 458.35 242.51 464.72 242.00 470.00
C 242.00 494.00 242.00 518.00 242.00 542.00
C 242.30 545.14 242.30 548.92 242.00 552.00
C 242.00 562.31 243.75 567.00 247.31 576.69 C 250.87 586.39 255.28 588.28 259.31 578.31 C 263.33 568.33 263.77 564.07 266.00 554.00
C 266.37 552.31 266.06 549.84 268.00 549.00
C 267.44 551.52 269.19 555.30 267.00 557.00
C 263.48 578.68 264.31 601.04 258.00 622.00
C 253.35 618.15 248.78 613.63 245.00 609.00
C 240.69 604.69 235.94 600.61 232.00 596.00
C 225.09 587.92 217.81 580.10 210.00 573.00
C 147.92 670.02 88.40 768.77 23.00 864.00
C 21.11 866.76 19.59 870.02 17.00 872.00
C 16.91 868.92 19.42 866.23 21.00 864.00
C 31.19 850.43 39.16 836.34 47.92 821.92 C 56.68 807.50 65.14 792.34 73.77 777.77 C 82.40 763.21 90.65 748.96 99.30 734.30 C 107.96 719.64 116.60 705.10 125.25 690.25 C 133.90 675.41 142.44 661.31 151.30 646.30 C 160.17 631.30 167.15 618.19 176.75 602.75 C 186.36 587.32 191.68 574.17 201.32 557.32 C 210.96 540.47 208.29 516.78 209.00 496.00 C 209.71 475.22 206.73 446.85 209.00 426.00 C 211.27 405.15 194.98 386.33 178.00 405.00
C 189.39 381.64 201.99 358.60 215.00 336.00
C 253.33 375.06 285.75 418.99 316.00 463.00
C 314.88 456.89 314.86 450.44 315.00 444.00
C 313.75 431.11 314.00 416.61 314.00 403.00
C 314.00 386.61 314.96 367.59 305.08 354.92 C 295.19 342.26 291.61 332.16 284.08 318.92 C 276.54 305.69 271.75 293.99 266.22 279.78 C 260.69 265.56 256.11 251.48 253.07 235.93 C 250.03 220.37 247.00 200.57 247.00 184.00
C 246.60 179.91 246.61 175.02 247.00 171.00
C 247.00 168.16 246.21 164.02 248.00 162.00
C 252.72 225.70 281.40 286.33 326.00 333.00
M 692.00 242.00 
C 690.99 237.65 687.93 239.84 685.00 241.00
C 682.06 235.11 680.34 230.01 680.00 223.00 C 679.66 215.99 680.27 207.61 680.78 200.78 C 681.29 193.95 682.69 188.59 685.77 182.77 C 688.85 176.95 692.41 169.66 693.00 179.00 C 693.59 188.35 690.98 191.91 692.98 200.02 C 694.97 208.14 693.08 212.39 694.00 220.00 C 694.92 227.61 691.95 234.56 692.00 242.00
M 408.00 175.00 
C 410.53 176.20 407.56 180.22 405.32 178.66 C 403.08 177.10 405.80 173.95 408.00 175.00
M 406.00 183.00 
C 403.90 187.68 397.97 179.85 406.00 183.00
M 778.00 191.00 
C 783.38 219.51 783.90 248.64 785.00 280.00 C 786.10 311.36 785.09 346.72 788.00 377.00
C 782.13 376.85 780.11 383.55 774.00 383.00
C 767.00 368.82 769.51 353.77 771.00 338.00 C 772.49 322.23 771.95 302.82 772.00 286.00 C 772.05 269.18 771.06 252.00 772.00 236.00 C 772.94 220.00 763.95 200.72 778.00 191.00
M 575.00 202.00 
C 572.03 207.17 573.19 214.98 574.00 223.00 C 574.81 231.02 575.03 241.16 575.01 249.01 C 574.99 256.85 576.60 262.04 567.00 266.00
C 559.79 241.48 568.27 218.08 567.00 193.00
C 573.12 192.00 571.23 200.05 575.00 202.00
M 531.00 197.00 
C 527.37 205.57 532.36 211.50 533.00 221.00 C 533.64 230.50 535.54 240.65 534.00 250.00
C 521.54 247.07 523.71 231.31 523.67 222.33 C 523.63 213.35 516.02 191.50 531.00 197.00
M 896.00 199.00 
C 896.43 200.97 898.13 204.14 895.00 205.00
C 893.56 203.28 893.40 199.71 896.00 199.00
M 893.00 326.00 
C 885.75 316.30 890.21 302.66 889.00 290.00 C 887.79 277.34 888.92 263.67 888.00 251.00 C 887.08 238.33 891.29 225.61 892.00 214.00
C 896.97 230.68 896.49 252.20 897.00 271.00 C 897.51 289.80 897.73 308.84 893.00 326.00
M 197.00 262.00 
C 204.15 267.70 200.78 278.38 202.00 286.00
C 195.40 288.75 186.33 288.32 188.35 280.30 C 190.37 272.29 191.76 263.85 191.00 256.00 C 190.24 248.15 192.43 236.29 192.00 230.00 C 191.56 223.71 190.96 212.79 196.30 218.70 C 201.64 224.62 198.26 232.93 199.02 239.03 C 199.78 245.12 198.79 255.90 197.00 262.00
M 454.00 275.00 
C 452.19 286.19 450.44 297.16 451.00 309.00 C 451.56 320.84 449.81 331.23 450.00 343.00 C 450.19 354.77 452.70 362.62 451.00 375.00 C 449.30 387.38 456.12 396.21 452.22 409.22 C 448.32 422.23 437.19 409.33 440.00 398.00 C 442.81 386.67 438.94 374.78 440.00 363.00 C 441.06 351.22 441.63 340.93 441.98 329.98 C 442.32 319.02 439.20 306.03 440.00 295.00 C 440.80 283.97 440.92 272.12 443.93 261.93 C 446.93 251.73 446.56 245.36 450.00 234.00
C 455.74 240.05 449.68 250.58 451.78 257.22 C 453.88 263.86 442.43 278.69 454.00 275.00
M 325.00 244.00 
C 317.56 245.69 324.36 237.36 325.00 244.00
M 853.00 414.00 
C 834.08 416.14 844.15 389.78 842.00 376.00 C 839.85 362.22 839.94 344.77 840.67 330.33 C 841.40 315.89 842.71 298.01 843.00 283.00 C 843.29 267.99 848.27 255.90 850.00 243.00
C 853.97 259.47 849.43 275.27 850.78 294.22 C 852.12 313.17 853.62 332.23 853.00 352.00 C 852.38 371.77 853.16 393.53 853.00 414.00
M 688.00 248.00 
C 687.44 250.52 689.19 254.30 687.00 256.00
C 686.67 254.49 686.37 249.60 688.00 248.00
M 251.00 269.00 
C 255.10 276.79 255.89 288.14 259.30 295.70 C 262.71 303.25 270.12 315.05 260.00 320.00
C 255.96 325.27 264.05 341.27 255.00 338.00
C 256.23 341.49 256.69 347.72 251.00 347.00
C 252.68 344.06 253.18 343.41 250.00 343.00
C 246.46 340.82 250.10 345.61 248.00 347.00
C 242.98 345.16 240.38 341.08 239.00 336.00
C 233.02 338.37 228.63 330.72 222.77 326.23 C 216.90 321.74 225.28 312.31 227.78 306.78 C 230.27 301.24 234.60 293.19 238.75 287.75 C 242.91 282.32 244.75 273.37 251.00 269.00
M 199.00 301.00 
C 201.46 302.17 199.37 307.38 196.32 305.66 C 193.27 303.94 196.69 299.91 199.00 301.00
M 611.00 386.00 
C 611.42 388.58 612.06 391.77 612.00 395.00
C 611.24 432.73 593.31 475.77 558.00 492.00
C 556.91 488.16 560.20 485.62 560.00 482.00
C 557.93 483.70 555.59 484.55 553.00 485.00
C 602.77 441.81 614.41 359.11 572.00 307.00
C 594.16 327.87 608.29 356.07 611.00 386.00
M 391.00 346.00 
C 392.98 338.86 395.25 330.73 400.00 325.00
C 403.41 332.68 394.88 340.10 391.00 346.00
M 893.00 327.00 
C 896.20 327.78 894.38 333.68 890.92 332.92 C 887.47 332.16 889.72 326.20 893.00 327.00
M 894.00 334.00 
C 892.67 344.30 894.51 356.90 893.00 369.00
C 887.62 366.90 890.73 355.49 888.07 349.93 C 885.41 344.36 888.29 335.16 894.00 334.00
M 893.00 378.00 
C 893.36 380.49 891.20 382.56 889.00 383.00
C 889.97 381.15 890.79 378.76 893.00 378.00
M 891.00 392.00 
C 888.38 390.28 891.65 387.37 891.00 385.00
C 893.09 386.37 894.22 391.01 891.00 392.00
M 371.00 392.00 
C 373.18 399.48 371.95 406.77 369.00 415.00
C 367.25 408.70 365.69 396.55 371.00 392.00
M 183.00 519.00 
C 180.22 512.01 179.25 503.19 180.00 495.00 C 180.75 486.81 178.75 475.88 180.00 468.00 C 181.25 460.12 180.12 450.14 181.99 442.99 C 183.86 435.84 181.18 424.35 189.00 424.00
C 188.15 420.89 190.81 418.85 191.00 416.00
C 188.88 425.75 190.70 438.04 188.00 449.00 C 185.30 459.96 185.79 471.41 186.00 483.00 C 186.21 494.59 185.45 508.70 183.00 519.00
M 782.00 455.00 
C 779.16 452.15 778.42 452.24 777.00 457.00
C 764.51 450.77 765.99 432.65 774.00 423.00
C 790.96 422.42 792.43 446.27 782.00 455.00
M 695.00 431.00 
C 694.41 433.84 696.23 437.98 694.00 440.00
C 694.19 432.81 689.29 437.63 691.00 431.00
C 692.15 433.39 693.21 432.18 695.00 431.00
M 898.00 441.00 
C 898.78 452.09 887.45 459.13 887.07 471.07 C 886.69 483.02 885.49 497.98 886.00 511.00 C 886.51 524.02 885.77 538.60 886.00 552.00 C 886.23 565.40 885.90 579.41 886.00 593.00 C 886.10 606.59 885.96 620.26 886.00 634.00 C 886.04 647.74 886.00 662.20 886.00 676.00
C 886.32 679.29 887.73 682.59 886.00 686.00
C 881.92 694.08 867.63 695.69 860.31 701.30 C 852.98 706.92 841.10 710.66 832.92 715.92 C 824.74 721.17 814.91 725.29 806.30 730.30 C 797.69 735.32 787.91 740.06 779.25 745.25 C 770.60 750.45 761.44 754.44 752.77 759.77 C 744.10 765.10 734.12 769.14 725.31 774.31 C 716.49 779.47 708.15 784.45 698.92 788.92 C 689.70 793.40 680.66 799.85 671.00 803.00
C 680.30 796.47 691.11 792.10 700.70 785.70 C 710.28 779.29 720.22 774.08 730.23 768.23 C 740.24 762.38 750.02 755.96 760.23 750.23 C 770.43 744.50 778.87 738.18 789.23 732.23 C 799.59 726.28 807.78 719.72 818.75 713.75 C 829.71 707.78 835.18 701.47 847.75 695.75 C 860.31 690.02 861.03 673.29 859.00 659.00
C 793.61 691.15 732.29 732.64 669.00 769.00
C 667.63 772.19 662.38 772.78 660.00 775.00
C 660.75 771.03 666.12 770.32 669.00 768.00
C 727.99 727.01 791.17 690.22 851.00 650.00
C 830.23 637.21 804.20 623.38 779.00 633.00
C 778.05 629.40 784.86 624.68 788.00 622.00
C 791.65 618.88 797.27 614.97 799.00 611.00
C 801.67 601.28 798.31 589.20 799.00 579.00 C 799.69 568.80 799.26 556.58 800.00 547.00
C 799.74 534.14 787.03 528.27 776.00 535.00
C 790.53 516.28 811.97 503.87 826.00 485.00
C 826.76 509.77 825.47 537.11 826.00 563.00
C 827.09 574.31 827.09 587.76 826.00 599.00
C 826.00 609.12 830.71 610.32 839.08 612.92 C 847.44 615.52 850.27 618.91 858.00 622.00
C 857.90 608.26 858.59 594.25 858.00 580.00 C 857.41 565.75 859.25 548.96 858.00 535.00 C 856.75 521.04 857.93 510.31 866.77 500.77 C 875.61 491.23 876.99 482.25 882.92 471.92 C 888.86 461.60 892.18 451.62 897.00 441.00
C 897.85 438.83 898.73 435.33 901.00 435.00
C 899.59 436.81 900.17 439.84 898.00 441.00
M 713.00 506.00 
C 717.67 506.00 722.33 506.00 727.00 506.00
C 745.01 506.00 764.04 500.66 776.00 487.00
C 775.83 490.12 772.15 491.86 772.00 495.00
C 769.72 498.50 766.08 501.37 763.00 504.00
C 745.03 519.35 734.23 538.89 722.70 559.70 C 711.16 580.50 697.25 599.65 687.00 621.00
C 703.77 620.68 718.28 631.46 734.22 633.78 C 750.17 636.09 761.22 615.66 764.00 603.00
C 764.36 601.27 763.41 598.47 766.00 598.00
C 764.50 600.94 767.43 604.57 765.00 607.00
C 763.50 616.60 760.54 625.41 756.08 634.08 C 751.62 642.74 746.69 646.97 741.75 655.75 C 736.80 664.53 730.34 668.77 722.30 661.70 C 714.27 654.62 706.86 654.00 697.78 650.22 C 688.70 646.44 677.97 644.20 668.00 644.00
C 664.61 643.93 660.67 643.26 658.00 643.00
C 643.80 643.00 630.90 644.84 619.00 652.00
C 627.67 637.04 645.79 633.14 655.25 619.25 C 664.72 605.37 673.37 590.51 682.30 576.30 C 691.24 562.10 698.42 545.62 710.00 534.00
C 694.85 529.98 678.93 528.39 663.93 521.07 C 648.93 513.75 637.76 534.73 635.00 547.00
C 632.32 536.93 637.90 526.17 641.77 516.77 C 645.64 507.37 650.09 499.70 656.30 491.30 C 662.52 482.91 672.83 494.39 681.70 497.31 C 690.56 500.22 702.47 507.45 713.00 506.00
M 512.00 533.00 
C 510.81 546.13 512.21 560.53 511.00 573.00
C 511.00 590.66 506.25 621.89 534.00 616.00
C 527.52 620.79 519.73 624.89 512.31 628.31 C 504.89 631.72 497.91 638.24 490.75 641.75 C 483.59 645.27 479.46 654.30 472.75 657.75 C 466.05 661.20 460.37 647.51 453.25 644.75 C 446.14 641.99 438.26 635.53 429.33 634.67 C 420.40 633.81 407.08 630.96 398.00 635.00
C 405.81 626.05 417.42 621.50 417.00 607.00 C 416.58 592.50 416.69 573.57 417.00 559.00 C 417.31 544.43 417.84 528.85 400.00 528.00
C 409.69 521.66 419.98 515.12 430.23 509.23 C 440.48 503.34 448.78 493.25 459.00 488.00
C 471.71 511.01 502.18 517.11 526.00 510.00
C 519.92 516.83 512.69 523.60 512.00 533.00
M 571.00 646.00 
C 571.00 637.98 571.30 629.26 572.00 622.00
C 572.00 613.00 572.00 604.00 572.00 595.00
C 570.75 582.07 571.01 566.85 572.00 554.00
C 571.70 539.18 561.42 529.61 547.00 538.00
C 562.48 518.33 583.21 502.88 603.00 489.00
C 594.15 503.52 599.79 519.18 598.00 536.00 C 596.21 552.82 600.76 570.76 598.00 588.00 C 595.24 605.25 609.30 617.07 623.00 602.00
C 612.38 626.02 586.46 641.41 570.00 661.00
C 572.13 656.48 570.48 650.94 571.00 646.00
M 286.00 637.00 
C 279.33 635.57 284.47 630.60 286.00 637.00
M 294.00 658.00 
C 286.97 658.53 287.71 650.69 285.00 647.00
C 290.25 647.67 293.91 652.62 294.00 658.00
M 307.00 679.00 
C 306.18 682.73 307.59 684.79 310.00 687.00
C 305.09 687.96 299.88 679.73 307.00 679.00
M 875.00 713.00 
C 879.94 720.73 879.14 732.14 879.00 741.00 C 878.86 749.86 879.65 762.65 879.00 771.00 C 878.35 779.35 882.00 794.94 871.00 794.00 C 860.00 793.06 868.60 776.23 867.98 768.98 C 867.35 761.72 867.71 748.30 868.98 739.98 C 870.24 731.65 868.38 719.12 875.00 713.00
M 361.00 738.00 
C 359.02 736.46 356.09 734.74 356.00 732.00
C 358.18 732.51 360.55 735.60 361.00 738.00
M 291.00 736.00 
C 291.75 745.90 292.30 757.58 292.99 768.01 C 293.68 778.44 292.97 791.39 294.00 801.00 C 295.03 810.62 296.86 823.25 296.98 832.02 C 297.10 840.80 301.17 859.46 290.32 858.66 C 279.47 857.87 280.96 842.26 282.00 833.00 C 283.04 823.74 283.63 809.06 284.00 799.00 C 284.37 788.94 284.90 776.51 285.00 766.00 C 285.10 755.49 282.57 741.05 291.00 736.00
M 809.00 796.00 
C 811.42 810.07 815.61 821.56 815.00 836.00 C 814.38 850.45 816.27 868.59 816.00 883.00 C 815.73 897.41 820.23 912.64 812.00 924.00
C 795.18 923.29 804.31 903.79 803.07 889.92 C 801.83 876.06 804.87 855.77 804.00 841.00 C 803.13 826.23 803.81 808.60 809.00 796.00 Z"/>
</g>
<g fill="#6D42A8" fill-opacity="1.00" stroke="None">
<path d="
M 827.00 195.00 
C 815.32 179.58 800.55 170.70 784.70 159.30 C 768.85 147.89 753.30 139.63 735.70 130.31 C 718.09 120.98 699.35 114.80 679.22 108.78 C 659.10 102.75 637.24 97.27 615.02 94.98 C 592.81 92.68 564.09 92.02 542.00 94.00 C 519.91 95.98 495.96 100.13 475.68 105.68 C 455.40 111.23 436.59 117.92 418.22 126.22 C 399.85 134.53 384.54 143.28 368.08 154.08 C 351.62 164.88 337.84 174.33 322.75 186.75 C 307.67 199.17 299.15 212.64 284.30 226.30 C 269.46 239.96 286.61 265.58 299.00 275.00
C 302.04 276.48 302.94 272.21 305.00 274.00
C 303.73 270.08 308.95 266.88 304.00 265.00
C 308.40 266.77 307.24 261.00 311.00 262.00
C 306.34 260.52 307.89 259.92 309.00 256.00
C 311.99 263.29 316.37 253.38 310.00 254.00
C 311.46 250.49 316.44 245.39 309.00 247.00
C 310.77 237.70 322.61 235.41 323.00 227.00
C 327.34 227.64 331.14 226.09 335.00 225.00
C 333.48 221.80 330.98 222.07 334.75 221.75 C 338.53 221.44 338.05 217.67 337.00 216.00
C 340.14 216.44 343.44 215.57 345.00 213.00
C 347.48 216.47 351.39 215.40 354.00 213.00
C 351.48 211.78 348.11 210.30 345.00 210.00
C 348.15 205.91 352.62 199.59 359.00 201.00
C 356.98 209.57 371.60 204.17 370.00 196.00
C 375.38 198.73 374.79 191.29 375.00 188.00
C 378.70 192.17 391.98 187.27 385.00 182.00
C 391.61 183.85 394.35 178.55 400.00 178.00
C 404.57 169.03 419.81 161.99 430.30 156.30 C 440.80 150.62 453.55 145.96 465.31 140.31 C 477.06 134.65 492.38 128.34 505.00 131.00
C 500.99 135.05 496.21 130.43 492.00 132.00
C 491.80 137.13 491.26 138.33 489.00 143.00
C 486.08 143.63 483.74 141.97 481.00 142.00
C 479.83 149.64 471.96 150.85 466.00 153.00 C 460.04 155.16 450.34 151.46 446.30 156.30 C 442.27 161.15 436.32 159.96 431.00 164.00
C 433.20 167.52 429.84 169.28 428.00 172.00
C 422.50 170.16 418.81 176.10 414.00 171.00
C 416.22 175.04 413.64 179.26 417.00 183.00
C 412.08 185.30 405.00 190.36 409.00 196.00
C 405.83 196.80 404.22 193.51 404.00 191.00
C 400.56 194.60 395.68 189.57 392.30 191.30 C 388.92 193.04 389.83 198.75 386.00 200.00
C 391.73 204.32 398.72 193.84 405.00 199.00
C 401.85 200.70 399.91 203.86 403.00 207.00
C 396.02 208.85 386.07 213.57 389.00 222.00
C 381.94 215.46 379.38 223.52 385.00 229.00
C 381.50 229.80 378.86 228.08 376.00 227.00
C 380.74 232.35 377.33 237.01 371.00 236.00
C 371.35 237.45 377.12 238.64 373.00 239.00
C 371.91 245.74 366.34 238.77 363.00 239.00
C 361.68 243.40 364.62 245.29 366.00 247.00
C 362.39 247.84 363.42 250.84 363.00 254.00
C 357.94 254.43 352.45 253.83 348.26 257.26 C 344.07 260.69 353.05 266.36 350.00 271.00
C 343.15 270.10 342.21 278.48 345.68 283.32 C 349.14 288.16 342.33 293.32 346.00 297.00
C 340.05 301.57 337.17 307.30 334.32 314.32 C 331.48 321.35 337.43 332.23 342.00 324.00
C 343.70 327.29 348.27 327.91 349.00 332.00
C 345.70 332.76 345.31 328.57 342.00 329.00
C 343.64 336.25 359.17 333.10 358.00 344.00
C 371.87 324.73 383.67 301.79 397.70 281.70 C 411.72 261.60 426.74 244.27 446.25 228.25 C 465.75 212.23 482.83 198.11 506.25 186.25 C 529.68 174.39 553.17 164.24 579.93 157.93 C 606.68 151.61 642.62 147.44 671.00 149.00 C 699.38 150.56 730.04 155.11 756.31 163.69 C 782.57 172.28 802.28 183.44 827.00 195.00
M 392.00 176.00 
C 390.59 178.58 388.16 180.75 385.00 180.00
C 387.08 176.96 387.95 176.28 392.00 176.00
M 296.00 265.00 
C 294.90 255.94 305.90 264.21 296.00 265.00 Z"/>
</g>
<g fill="#DDDFE3" fill-opacity="1.00" stroke="None">
<path d="
M 247.00 171.00 
C 247.00 175.33 247.00 179.67 247.00 184.00
C 247.00 200.57 250.03 220.37 253.07 235.93 C 256.11 251.48 260.69 265.56 266.22 279.78 C 271.75 293.99 276.54 305.69 284.08 318.92 C 291.61 332.16 295.19 342.26 305.08 354.92 C 314.96 367.59 314.00 386.61 314.00 403.00
C 315.25 415.89 315.00 430.39 315.00 444.00
C 314.86 450.44 314.88 456.89 316.00 463.00
C 285.75 418.99 253.33 375.06 215.00 336.00
C 201.99 358.60 189.39 381.64 178.00 405.00
C 194.98 386.33 211.27 405.15 209.00 426.00 C 206.73 446.85 209.71 475.22 209.00 496.00 C 208.29 516.78 210.96 540.47 201.32 557.32 C 191.68 574.17 186.36 587.32 176.75 602.75 C 167.15 618.19 160.17 631.30 151.30 646.30 C 142.44 661.31 133.90 675.41 125.25 690.25 C 116.60 705.10 107.96 719.64 99.30 734.30 C 90.65 748.96 82.40 763.21 73.77 777.77 C 65.14 792.34 56.68 807.50 47.92 821.92 C 39.16 836.34 31.19 850.43 21.00 864.00
C 20.74 864.12 22.28 864.47 23.00 864.00
C 88.40 768.77 147.92 670.02 210.00 573.00
C 217.81 580.10 225.09 587.92 232.00 596.00
C 236.31 600.31 241.06 604.39 245.00 609.00
C 248.78 613.63 253.35 618.15 258.00 622.00
C 264.31 601.04 263.48 578.68 267.00 557.00
C 266.92 555.78 266.09 554.62 266.00 554.00
C 263.77 564.07 263.33 568.33 259.31 578.31 C 255.28 588.28 250.87 586.39 247.31 576.69 C 243.75 567.00 242.00 562.31 242.00 552.00
C 242.00 548.67 242.00 545.33 242.00 542.00
C 242.00 518.00 242.00 494.00 242.00 470.00
C 242.00 464.33 242.00 458.67 242.00 453.00
C 242.00 443.33 242.00 433.67 242.00 424.00
C 278.43 465.38 302.69 511.85 323.69 563.31 C 344.70 614.76 356.98 675.39 382.00 726.00
C 386.06 734.21 392.40 744.85 397.75 752.25 C 403.11 759.64 408.64 772.18 416.00 775.00
C 397.42 758.04 393.21 733.71 382.77 711.23 C 372.33 688.75 365.78 662.12 360.33 636.67 C 354.88 611.23 349.00 578.29 349.00 551.00
C 348.48 545.64 348.47 539.29 349.00 534.00
C 348.47 497.55 349.00 459.18 349.00 422.00
C 349.00 416.00 349.00 410.00 349.00 404.00
C 349.00 400.33 349.00 396.67 349.00 393.00
C 349.00 388.92 349.68 384.34 350.00 381.00
C 346.82 365.40 365.35 362.94 373.00 354.00
C 359.02 364.12 347.49 352.96 337.00 344.00
C 333.05 340.62 329.60 336.60 326.00 333.00
C 281.40 286.33 252.72 225.70 248.00 162.00
C 246.21 164.02 247.00 168.16 247.00 171.00 Z"/>
</g>
<g fill="#6D42A8" fill-opacity="1.00" stroke="None">
<path d="
M 247.00 184.00 
C 247.00 179.67 247.00 175.33 247.00 171.00
C 246.61 175.02 246.60 179.91 247.00 184.00 Z"/>
</g>
<g fill="#6D42A8" fill-opacity="1.00" stroke="None">
<path d="
M 692.00 242.00 
C 691.95 234.56 694.92 227.61 694.00 220.00 C 693.08 212.39 694.97 208.14 692.98 200.02 C 690.98 191.91 693.59 188.35 693.00 179.00 C 692.41 169.66 688.85 176.95 685.77 182.77 C 682.69 188.59 681.29 193.95 680.78 200.78 C 680.27 207.61 679.66 215.99 680.00 223.00 C 680.34 230.01 682.06 235.11 685.00 241.00
C 687.93 239.84 690.99 237.65 692.00 242.00 Z"/>
</g>
<g fill="#6D42A8" fill-opacity="1.00" stroke="None">
<path d="
M 408.00 175.00 
C 405.80 173.95 403.08 177.10 405.32 178.66 C 407.56 180.22 410.53 176.20 408.00 175.00 Z"/>
</g>
<g fill="#000000" fill-opacity="1.00" stroke="None">
<path d="
M 392.00 176.00 
C 387.95 176.28 387.08 176.96 385.00 180.00
C 388.16 180.75 390.59 178.58 392.00 176.00 Z"/>
</g>
<g fill="#6D42A8" fill-opacity="1.00" stroke="None">
<path d="
M 406.00 183.00 
C 397.97 179.85 403.90 187.68 406.00 183.00 Z"/>
</g>
<g fill="#6D42A8" fill-opacity="1.00" stroke="None">
<path d="
M 778.00 191.00 
C 763.95 200.72 772.94 220.00 772.00 236.00 C 771.06 252.00 772.05 269.18 772.00 286.00 C 771.95 302.82 772.49 322.23 771.00 338.00 C 769.51 353.77 767.00 368.82 774.00 383.00
C 780.11 383.55 782.13 376.85 788.00 377.00
C 785.09 346.72 786.10 311.36 785.00 280.00 C 783.90 248.64 783.38 219.51 778.00 191.00 Z"/>
</g>
<g fill="#6D42A8" fill-opacity="1.00" stroke="None">
<path d="
M 575.00 202.00 
C 571.23 200.05 573.12 192.00 567.00 193.00
C 568.27 218.08 559.79 241.48 567.00 266.00
C 576.60 262.04 574.99 256.85 575.01 249.01 C 575.03 241.16 574.81 231.02 574.00 223.00 C 573.19 214.98 572.03 207.17 575.00 202.00 Z"/>
</g>
<g fill="#6D42A8" fill-opacity="1.00" stroke="None">
<path d="
M 531.00 197.00 
C 516.02 191.50 523.63 213.35 523.67 222.33 C 523.71 231.31 521.54 247.07 534.00 250.00
C 535.54 240.65 533.64 230.50 533.00 221.00 C 532.36 211.50 527.37 205.57 531.00 197.00 Z"/>
</g>
<g fill="#6D42A8" fill-opacity="1.00" stroke="None">
<path d="
M 896.00 199.00 
C 893.40 199.71 893.56 203.28 895.00 205.00
C 898.13 204.14 896.43 200.97 896.00 199.00 Z"/>
</g>
<g fill="#6D42A8" fill-opacity="1.00" stroke="None">
<path d="
M 893.00 326.00 
C 897.73 308.84 897.51 289.80 897.00 271.00 C 896.49 252.20 896.97 230.68 892.00 214.00
C 891.29 225.61 887.08 238.33 888.00 251.00 C 888.92 263.67 887.79 277.34 889.00 290.00 C 890.21 302.66 885.75 316.30 893.00 326.00 Z"/>
</g>
<g fill="#6D42A8" fill-opacity="1.00" stroke="None">
<path d="
M 197.00 262.00 
C 198.79 255.90 199.78 245.12 199.02 239.03 C 198.26 232.93 201.64 224.62 196.30 218.70 C 190.96 212.79 191.56 223.71 192.00 230.00 C 192.43 236.29 190.24 248.15 191.00 256.00 C 191.76 263.85 190.37 272.29 188.35 280.30 C 186.33 288.32 195.40 288.75 202.00 286.00
C 200.78 278.38 204.15 267.70 197.00 262.00 Z"/>
</g>
<g fill="#6D42A8" fill-opacity="1.00" stroke="None">
<path d="
M 454.00 275.00 
C 442.43 278.69 453.88 263.86 451.78 257.22 C 449.68 250.58 455.74 240.05 450.00 234.00
C 446.56 245.36 446.93 251.73 443.93 261.93 C 440.92 272.12 440.80 283.97 440.00 295.00 C 439.20 306.03 442.32 319.02 441.98 329.98 C 441.63 340.93 441.06 351.22 440.00 363.00 C 438.94 374.78 442.81 386.67 440.00 398.00 C 437.19 409.33 448.32 422.23 452.22 409.22 C 456.12 396.21 449.30 387.38 451.00 375.00 C 452.70 362.62 450.19 354.77 450.00 343.00 C 449.81 331.23 451.56 320.84 451.00 309.00 C 450.44 297.16 452.19 286.19 454.00 275.00 Z"/>
</g>
<g fill="#6D42A8" fill-opacity="1.00" stroke="None">
<path d="
M 325.00 244.00 
C 324.36 237.36 317.56 245.69 325.00 244.00 Z"/>
</g>
<g fill="#6D42A8" fill-opacity="1.00" stroke="None">
<path d="
M 853.00 414.00 
C 853.16 393.53 852.38 371.77 853.00 352.00 C 853.62 332.23 852.12 313.17 850.78 294.22 C 849.43 275.27 853.97 259.47 850.00 243.00
C 848.27 255.90 843.29 267.99 843.00 283.00 C 842.71 298.01 841.40 315.89 840.67 330.33 C 839.94 344.77 839.85 362.22 842.00 376.00 C 844.15 389.78 834.08 416.14 853.00 414.00 Z"/>
</g>
<g fill="#6D42A8" fill-opacity="1.00" stroke="None">
<path d="
M 688.00 248.00 
C 686.37 249.60 686.67 254.49 687.00 256.00
C 689.19 254.30 687.44 250.52 688.00 248.00 Z"/>
</g>
<g fill="#000000" fill-opacity="1.00" stroke="None">
<path d="
M 296.00 265.00 
C 305.90 264.21 294.90 255.94 296.00 265.00 Z"/>
</g>
<g fill="#6D42A8" fill-opacity="1.00" stroke="None">
<path d="
M 251.00 269.00 
C 244.75 273.37 242.91 282.32 238.75 287.75 C 234.60 293.19 230.27 301.24 227.78 306.78 C 225.28 312.31 216.90 321.74 222.77 326.23 C 228.63 330.72 233.02 338.37 239.00 336.00
C 240.38 341.08 242.98 345.16 248.00 347.00
C 250.10 345.61 246.46 340.82 250.00 343.00
C 253.18 343.41 252.68 344.06 251.00 347.00
C 256.69 347.72 256.23 341.49 255.00 338.00
C 264.05 341.27 255.96 325.27 260.00 320.00
C 270.12 315.05 262.71 303.25 259.30 295.70 C 255.89 288.14 255.10 276.79 251.00 269.00
M 254.00 323.00 
C 254.63 325.42 254.68 328.99 253.00 331.00
C 251.87 328.91 250.51 323.16 254.00 323.00 Z"/>
</g>
<g fill="#6D42A8" fill-opacity="1.00" stroke="None">
<path d="
M 199.00 301.00 
C 196.69 299.91 193.27 303.94 196.32 305.66 C 199.37 307.38 201.46 302.17 199.00 301.00 Z"/>
</g>
<g fill="#DDDFE3" fill-opacity="1.00" stroke="None">
<path d="
M 612.00 395.00 
C 611.82 392.71 611.16 388.93 611.00 386.00
C 608.29 356.07 594.16 327.87 572.00 307.00
C 614.41 359.11 602.77 441.81 553.00 485.00
C 555.59 484.55 557.93 483.70 560.00 482.00
C 560.20 485.62 556.91 488.16 558.00 492.00
C 593.31 475.77 611.24 432.73 612.00 395.00 Z"/>
</g>
<g fill="#000000" fill-opacity="1.00" stroke="None">
<path d="
M 254.00 323.00 
C 250.51 323.16 251.87 328.91 253.00 331.00
C 254.68 328.99 254.63 325.42 254.00 323.00 Z"/>
</g>
<g fill="#6D42A8" fill-opacity="1.00" stroke="None">
<path d="
M 391.00 346.00 
C 394.88 340.10 403.41 332.68 400.00 325.00
C 395.25 330.73 392.98 338.86 391.00 346.00 Z"/>
</g>
<g fill="#6D42A8" fill-opacity="1.00" stroke="None">
<path d="
M 893.00 327.00 
C 889.72 326.20 887.47 332.16 890.92 332.92 C 894.38 333.68 896.20 327.78 893.00 327.00 Z"/>
</g>
<g fill="#6D42A8" fill-opacity="1.00" stroke="None">
<path d="
M 337.00 344.00 
C 333.40 340.40 329.95 336.38 326.00 333.00
C 329.60 336.60 333.05 340.62 337.00 344.00 Z"/>
</g>
<g fill="#6D42A8" fill-opacity="1.00" stroke="None">
<path d="
M 894.00 334.00 
C 888.29 335.16 885.41 344.36 888.07 349.93 C 890.73 355.49 887.62 366.90 893.00 369.00
C 894.51 356.90 892.67 344.30 894.00 334.00 Z"/>
</g>
<g fill="#6D42A8" fill-opacity="1.00" stroke="None">
<path d="
M 893.00 378.00 
C 890.79 378.76 889.97 381.15 889.00 383.00
C 891.20 382.56 893.36 380.49 893.00 378.00 Z"/>
</g>
<g fill="#6D42A8" fill-opacity="1.00" stroke="None">
<path d="
M 349.00 393.00 
C 349.32 389.66 350.00 385.08 350.00 381.00
C 349.68 384.34 349.00 388.92 349.00 393.00 Z"/>
</g>
<g fill="#6D42A8" fill-opacity="1.00" stroke="None">
<path d="
M 891.00 392.00 
C 894.22 391.01 893.09 386.37 891.00 385.00
C 891.65 387.37 888.38 390.28 891.00 392.00 Z"/>
</g>
<g fill="#6D42A8" fill-opacity="1.00" stroke="None">
<path d="
M 612.00 395.00 
C 612.06 391.77 611.42 388.58 611.00 386.00
C 611.16 388.93 611.82 392.71 612.00 395.00 Z"/>
</g>
<g fill="#6D42A8" fill-opacity="1.00" stroke="None">
<path d="
M 371.00 392.00 
C 365.69 396.55 367.25 408.70 369.00 415.00
C 371.95 406.77 373.18 399.48 371.00 392.00 Z"/>
</g>
<g fill="#6D42A8" fill-opacity="1.00" stroke="None">
<path d="
M 315.00 444.00 
C 315.00 430.39 315.25 415.89 314.00 403.00
C 314.00 416.61 313.75 431.11 315.00 444.00 Z"/>
</g>
<g fill="#6D42A8" fill-opacity="1.00" stroke="None">
<path d="
M 349.00 422.00 
C 349.54 416.40 349.55 409.67 349.00 404.00
C 349.00 410.00 349.00 416.00 349.00 422.00 Z"/>
</g>
<g fill="#6D42A8" fill-opacity="1.00" stroke="None">
<path d="
M 183.00 519.00 
C 185.45 508.70 186.21 494.59 186.00 483.00 C 185.79 471.41 185.30 459.96 188.00 449.00 C 190.70 438.04 188.88 425.75 191.00 416.00
C 190.81 418.85 188.15 420.89 189.00 424.00
C 181.18 424.35 183.86 435.84 181.99 442.99 C 180.12 450.14 181.25 460.12 180.00 468.00 C 178.75 475.88 180.75 486.81 180.00 495.00 C 179.25 503.19 180.22 512.01 183.00 519.00 Z"/>
</g>
<g fill="#6D42A8" fill-opacity="1.00" stroke="None">
<path d="
M 782.00 455.00 
C 792.43 446.27 790.96 422.42 774.00 423.00
C 765.99 432.65 764.51 450.77 777.00 457.00
C 778.42 452.24 779.16 452.15 782.00 455.00 Z"/>
</g>
<g fill="#6D42A8" fill-opacity="1.00" stroke="None">
<path d="
M 695.00 431.00 
C 693.21 432.18 692.15 433.39 691.00 431.00
C 689.29 437.63 694.19 432.81 694.00 440.00
C 696.23 437.98 694.41 433.84 695.00 431.00 Z"/>
</g>
<g fill="#6D42A8" fill-opacity="1.00" stroke="None">
<path d="
M 897.00 441.00 
C 897.06 440.84 898.00 441.00 898.00 441.00
C 900.17 439.84 899.59 436.81 901.00 435.00
C 898.73 435.33 897.85 438.83 897.00 441.00 Z"/>
</g>
<g fill="#DDDFE3" fill-opacity="1.00" stroke="None">
<path d="
M 826.00 599.00 
C 826.00 587.00 826.00 575.00 826.00 563.00
C 825.47 537.11 826.76 509.77 826.00 485.00
C 811.97 503.87 790.53 516.28 776.00 535.00
C 787.03 528.27 799.74 534.14 800.00 547.00
C 800.20 557.18 800.85 568.96 800.00 579.00 C 799.15 589.04 802.82 602.25 799.00 611.00
C 797.27 614.97 791.65 618.88 788.00 622.00
C 784.78 625.22 780.81 629.10 779.00 633.00
C 804.20 623.38 830.23 637.21 851.00 650.00
C 791.17 690.22 727.99 727.01 669.00 768.00
C 668.77 768.16 669.00 769.00 669.00 769.00
C 732.29 732.64 793.61 691.15 859.00 659.00
C 861.03 673.29 860.31 690.02 847.75 695.75 C 835.18 701.47 829.71 707.78 818.75 713.75 C 807.78 719.72 799.59 726.28 789.23 732.23 C 778.87 738.18 770.43 744.50 760.23 750.23 C 750.02 755.96 740.24 762.38 730.23 768.23 C 720.22 774.08 710.28 779.29 700.70 785.70 C 691.11 792.10 680.30 796.47 671.00 803.00
C 680.66 799.85 689.70 793.40 698.92 788.92 C 708.15 784.45 716.49 779.47 725.31 774.31 C 734.12 769.14 744.10 765.10 752.77 759.77 C 761.44 754.44 770.60 750.45 779.25 745.25 C 787.91 740.06 797.69 735.32 806.30 730.30 C 814.91 725.29 824.74 721.17 832.92 715.92 C 841.10 710.66 852.98 706.92 860.31 701.30 C 867.63 695.69 881.92 694.08 886.00 686.00
C 886.88 683.33 886.00 678.84 886.00 676.00
C 886.00 662.20 886.04 647.74 886.00 634.00 C 885.96 620.26 886.10 606.59 886.00 593.00 C 885.90 579.41 886.23 565.40 886.00 552.00 C 885.77 538.60 886.51 524.02 886.00 511.00 C 885.49 497.98 886.69 483.02 887.07 471.07 C 887.45 459.13 898.78 452.09 898.00 441.00
C 898.00 441.00 897.06 440.84 897.00 441.00
C 892.18 451.62 888.86 461.60 882.92 471.92 C 876.99 482.25 875.61 491.23 866.77 500.77 C 857.93 510.31 856.75 521.04 858.00 535.00 C 859.25 548.96 857.41 565.75 858.00 580.00 C 858.59 594.25 857.90 608.26 858.00 622.00
C 850.27 618.91 847.44 615.52 839.08 612.92 C 830.71 610.32 826.00 609.12 826.00 599.00 Z"/>
</g>
<g fill="#6D42A8" fill-opacity="1.00" stroke="None">
<path d="
M 242.00 470.00 
C 242.51 464.72 242.52 458.35 242.00 453.00
C 242.00 458.67 242.00 464.33 242.00 470.00 Z"/>
</g>
<g fill="#DDDFE3" fill-opacity="1.00" stroke="None">
<path d="
M 658.00 643.00 
C 661.47 643.00 665.25 643.67 668.00 644.00
C 677.97 644.20 688.70 646.44 697.78 650.22 C 706.86 654.00 714.27 654.62 722.30 661.70 C 730.34 668.77 736.80 664.53 741.75 655.75 C 746.69 646.97 751.62 642.74 756.08 634.08 C 760.54 625.41 763.50 616.60 765.00 607.00
C 765.02 605.43 764.09 603.86 764.00 603.00
C 761.22 615.66 750.17 636.09 734.22 633.78 C 718.28 631.46 703.77 620.68 687.00 621.00
C 697.25 599.65 711.16 580.50 722.70 559.70 C 734.23 538.89 745.03 519.35 763.00 504.00
C 765.68 501.32 769.79 497.89 772.00 495.00
C 772.15 491.86 775.83 490.12 776.00 487.00
C 764.04 500.66 745.01 506.00 727.00 506.00
C 722.59 506.43 717.34 506.42 713.00 506.00
C 702.47 507.45 690.56 500.22 681.70 497.31 C 672.83 494.39 662.52 482.91 656.30 491.30 C 650.09 499.70 645.64 507.37 641.77 516.77 C 637.90 526.17 632.32 536.93 635.00 547.00
C 637.76 534.73 648.93 513.75 663.93 521.07 C 678.93 528.39 694.85 529.98 710.00 534.00
C 698.42 545.62 691.24 562.10 682.30 576.30 C 673.37 590.51 664.72 605.37 655.25 619.25 C 645.79 633.14 627.67 637.04 619.00 652.00
C 630.90 644.84 643.80 643.00 658.00 643.00 Z"/>
</g>
<g fill="#DDDFE3" fill-opacity="1.00" stroke="None">
<path d="
M 511.00 573.00 
C 511.00 560.07 509.51 545.03 512.00 533.00
C 512.69 523.60 519.92 516.83 526.00 510.00
C 502.18 517.11 471.71 511.01 459.00 488.00
C 448.78 493.25 440.48 503.34 430.23 509.23 C 419.98 515.12 409.69 521.66 400.00 528.00
C 417.84 528.85 417.31 544.43 417.00 559.00 C 416.69 573.57 416.58 592.50 417.00 607.00 C 417.42 621.50 405.81 626.05 398.00 635.00
C 407.08 630.96 420.40 633.81 429.33 634.67 C 438.26 635.53 446.14 641.99 453.25 644.75 C 460.37 647.51 466.05 661.20 472.75 657.75 C 479.46 654.30 483.59 645.27 490.75 641.75 C 497.91 638.24 504.89 631.72 512.31 628.31 C 519.73 624.89 527.52 620.79 534.00 616.00
C 506.25 621.89 511.00 590.66 511.00 573.00
M 483.00 540.00 
C 485.11 544.82 483.45 551.30 483.00 556.00
C 483.00 566.50 482.48 575.33 483.00 586.00 C 483.52 596.67 481.25 603.99 484.00 615.00 C 486.75 626.01 475.59 625.84 468.92 620.08 C 462.26 614.31 452.60 617.87 446.93 612.07 C 441.26 606.28 446.01 592.55 445.00 584.00 C 443.99 575.45 445.00 562.00 445.00 553.00
C 445.00 547.00 445.00 541.00 445.00 535.00
C 445.00 531.00 445.00 527.00 445.00 523.00
C 457.11 529.29 473.12 532.02 483.00 540.00 Z"/>
</g>
<g fill="#DDDFE3" fill-opacity="1.00" stroke="None">
<path d="
M 572.00 554.00 
C 572.27 567.65 572.00 581.34 572.00 595.00
C 572.00 604.00 572.00 613.00 572.00 622.00
C 572.00 630.02 571.70 638.74 571.00 646.00
C 570.48 650.94 572.13 656.48 570.00 661.00
C 586.46 641.41 612.38 626.02 623.00 602.00
C 609.30 617.07 595.24 605.25 598.00 588.00 C 600.76 570.76 596.21 552.82 598.00 536.00 C 599.79 519.18 594.15 503.52 603.00 489.00
C 583.21 502.88 562.48 518.33 547.00 538.00
C 561.42 529.61 571.70 539.18 572.00 554.00 Z"/>
</g>
<g fill="#6D42A8" fill-opacity="1.00" stroke="None">
<path d="
M 763.00 504.00 
C 766.08 501.37 769.72 498.50 772.00 495.00
C 769.79 497.89 765.68 501.32 763.00 504.00 Z"/>
</g>
<g fill="#6D42A8" fill-opacity="1.00" stroke="None">
<path d="
M 727.00 506.00 
C 722.33 506.00 717.67 506.00 713.00 506.00
C 717.34 506.42 722.59 506.43 727.00 506.00 Z"/>
</g>
<g fill="#000000" fill-opacity="1.00" stroke="None">
<path d="
M 445.00 535.00 
C 445.55 540.67 445.54 547.40 445.00 553.00
C 445.00 562.00 443.99 575.45 445.00 584.00 C 446.01 592.55 441.26 606.28 446.93 612.07 C 452.60 617.87 462.26 614.31 468.92 620.08 C 475.59 625.84 486.75 626.01 484.00 615.00 C 481.25 603.99 483.52 596.67 483.00 586.00 C 482.48 575.33 483.00 566.50 483.00 556.00
C 483.00 551.26 484.25 544.55 483.00 540.00
C 473.12 532.02 457.11 529.29 445.00 523.00
C 445.00 527.00 445.00 531.00 445.00 535.00 Z"/>
</g>
<g fill="#6D42A8" fill-opacity="1.00" stroke="None">
<path d="
M 511.00 573.00 
C 512.21 560.53 510.81 546.13 512.00 533.00
C 509.51 545.03 511.00 560.07 511.00 573.00 Z"/>
</g>
<g fill="#6D42A8" fill-opacity="1.00" stroke="None">
<path d="
M 349.00 551.00 
C 349.00 545.34 349.08 539.66 349.00 534.00
C 348.47 539.29 348.48 545.64 349.00 551.00 Z"/>
</g>
<g fill="#6D42A8" fill-opacity="1.00" stroke="None">
<path d="
M 445.00 553.00 
C 445.54 547.40 445.55 540.67 445.00 535.00
C 445.00 541.00 445.00 547.00 445.00 553.00 Z"/>
</g>
<g fill="#6D42A8" fill-opacity="1.00" stroke="None">
<path d="
M 483.00 556.00 
C 483.45 551.30 485.11 544.82 483.00 540.00
C 484.25 544.55 483.00 551.26 483.00 556.00 Z"/>
</g>
<g fill="#6D42A8" fill-opacity="1.00" stroke="None">
<path d="
M 242.00 552.00 
C 242.30 548.92 242.30 545.14 242.00 542.00
C 242.00 545.33 242.00 548.67 242.00 552.00 Z"/>
</g>
<g fill="#6D42A8" fill-opacity="1.00" stroke="None">
<path d="
M 799.00 611.00 
C 802.82 602.25 799.15 589.04 800.00 579.00 C 800.85 568.96 800.20 557.18 800.00 547.00
C 799.26 556.58 799.69 568.80 799.00 579.00 C 798.31 589.20 801.67 601.28 799.00 611.00 Z"/>
</g>
<g fill="#6D42A8" fill-opacity="1.00" stroke="None">
<path d="
M 266.00 554.00 
C 266.09 554.62 266.92 555.78 267.00 557.00
C 269.19 555.30 267.44 551.52 268.00 549.00
C 266.06 549.84 266.37 552.31 266.00 554.00 Z"/>
</g>
<g fill="#6D42A8" fill-opacity="1.00" stroke="None">
<path d="
M 572.00 595.00 
C 572.00 581.34 572.27 567.65 572.00 554.00
C 571.01 566.85 570.75 582.07 572.00 595.00 Z"/>
</g>
<g fill="#6D42A8" fill-opacity="1.00" stroke="None">
<path d="
M 826.00 599.00 
C 827.09 587.76 827.09 574.31 826.00 563.00
C 826.00 575.00 826.00 587.00 826.00 599.00 Z"/>
</g>
<g fill="#6D42A8" fill-opacity="1.00" stroke="None">
<path d="
M 245.00 609.00 
C 241.06 604.39 236.31 600.31 232.00 596.00
C 235.94 600.61 240.69 604.69 245.00 609.00 Z"/>
</g>
<g fill="#6D42A8" fill-opacity="1.00" stroke="None">
<path d="
M 416.00 775.00 
C 408.64 772.18 403.11 759.64 397.75 752.25 C 392.40 744.85 386.06 734.21 382.00 726.00
C 379.40 727.40 376.84 716.95 373.30 712.70 C 369.77 708.44 368.12 699.49 365.23 694.77 C 362.35 690.05 352.84 686.53 356.00 680.00
C 352.20 676.18 346.62 671.63 345.78 664.22 C 344.94 656.81 340.55 654.56 337.00 649.00
C 344.69 652.52 345.55 640.60 337.00 643.00
C 336.84 637.41 331.47 633.53 334.00 628.00
C 329.45 625.88 330.02 619.48 326.00 617.00
C 324.60 621.05 326.60 624.64 327.07 627.93 C 327.54 631.22 329.94 638.51 326.00 633.00
C 326.82 642.06 331.59 651.60 334.01 659.99 C 336.43 668.38 338.63 678.16 346.00 682.00
C 341.23 694.28 354.37 700.26 357.07 710.93 C 359.78 721.60 372.56 730.38 364.00 738.00
C 363.41 740.98 366.85 742.25 365.00 745.00
C 372.32 743.46 376.97 753.83 382.00 759.00
C 388.74 757.44 390.10 767.55 397.75 771.25 C 405.41 774.94 408.69 780.27 414.00 786.00
C 406.86 786.69 404.63 780.48 400.00 778.00
C 402.12 781.89 396.89 780.01 395.00 781.00
C 391.01 774.11 381.54 770.94 376.70 763.30 C 371.87 755.65 363.33 748.61 353.00 751.00
C 353.14 740.49 339.58 730.69 333.00 721.00
C 331.51 724.61 335.21 728.33 336.00 732.00
C 326.78 731.09 328.86 721.74 324.75 717.25 C 320.65 712.76 314.43 705.57 311.30 700.70 C 308.18 695.83 303.16 682.81 301.00 691.00
C 299.22 689.08 298.93 687.33 300.00 685.00
C 290.92 683.95 291.29 671.41 286.30 665.70 C 281.32 659.98 277.33 655.17 276.00 647.00
C 270.60 643.20 265.73 646.93 261.00 643.00
C 260.35 647.28 257.36 644.32 255.00 646.00
C 257.74 643.32 255.90 633.63 251.00 638.00
C 248.57 634.03 247.08 629.71 244.00 626.00
C 239.04 633.91 234.90 619.70 229.92 615.08 C 224.94 610.46 221.13 600.68 215.00 597.00
C 219.10 630.40 238.62 663.31 257.25 691.75 C 275.87 720.19 297.24 741.39 322.75 765.25 C 348.26 789.10 373.62 804.99 405.31 821.70 C 436.99 838.40 473.52 848.40 510.33 855.67 C 547.14 862.94 601.00 861.18 637.98 854.98 C 674.95 848.77 710.18 836.17 742.31 820.31 C 774.43 804.44 798.04 788.37 823.00 763.00
C 772.83 796.32 710.31 810.62 650.22 811.22 C 590.14 811.82 526.52 790.88 479.23 757.77 C 431.94 724.66 401.51 684.21 377.00 636.00
C 376.03 647.73 380.24 663.22 381.75 675.25 C 383.26 687.29 388.87 697.45 393.02 708.98 C 397.18 720.50 398.64 732.02 404.75 742.25 C 410.85 752.49 411.40 766.02 420.00 772.00
C 421.41 777.10 418.66 776.02 416.00 775.00 Z"/>
</g>
<g fill="#6D42A8" fill-opacity="1.00" stroke="None">
<path d="
M 764.00 603.00 
C 764.09 603.86 765.02 605.43 765.00 607.00
C 767.43 604.57 764.50 600.94 766.00 598.00
C 763.41 598.47 764.36 601.27 764.00 603.00 Z"/>
</g>
<g fill="#6D42A8" fill-opacity="1.00" stroke="None">
<path d="
M 571.00 646.00 
C 571.70 638.74 572.00 630.02 572.00 622.00
C 571.30 629.26 571.00 637.98 571.00 646.00 Z"/>
</g>
<g fill="#6D42A8" fill-opacity="1.00" stroke="None">
<path d="
M 779.00 633.00 
C 780.81 629.10 784.78 625.22 788.00 622.00
C 784.86 624.68 778.05 629.40 779.00 633.00 Z"/>
</g>
<g fill="#6D42A8" fill-opacity="1.00" stroke="None">
<path d="
M 286.00 637.00 
C 284.47 630.60 279.33 635.57 286.00 637.00 Z"/>
</g>
<g fill="#6D42A8" fill-opacity="1.00" stroke="None">
<path d="
M 668.00 644.00 
C 665.25 643.67 661.47 643.00 658.00 643.00
C 660.67 643.26 664.61 643.93 668.00 644.00 Z"/>
</g>
<g fill="#6D42A8" fill-opacity="1.00" stroke="None">
<path d="
M 294.00 658.00 
C 293.91 652.62 290.25 647.67 285.00 647.00
C 287.71 650.69 286.97 658.53 294.00 658.00 Z"/>
</g>
<g fill="#6D42A8" fill-opacity="1.00" stroke="None">
<path d="
M 886.00 686.00 
C 887.73 682.59 886.32 679.29 886.00 676.00
C 886.00 678.84 886.88 683.33 886.00 686.00 Z"/>
</g>
<g fill="#6D42A8" fill-opacity="1.00" stroke="None">
<path d="
M 307.00 679.00 
C 299.88 679.73 305.09 687.96 310.00 687.00
C 307.59 684.79 306.18 682.73 307.00 679.00 Z"/>
</g>
<g fill="#6D42A8" fill-opacity="1.00" stroke="None">
<path d="
M 875.00 713.00 
C 868.38 719.12 870.24 731.65 868.98 739.98 C 867.71 748.30 867.35 761.72 867.98 768.98 C 868.60 776.23 860.00 793.06 871.00 794.00 C 882.00 794.94 878.35 779.35 879.00 771.00 C 879.65 762.65 878.86 749.86 879.00 741.00 C 879.14 732.14 879.94 720.73 875.00 713.00 Z"/>
</g>
<g fill="#6D42A8" fill-opacity="1.00" stroke="None">
<path d="
M 361.00 738.00 
C 360.55 735.60 358.18 732.51 356.00 732.00
C 356.09 734.74 359.02 736.46 361.00 738.00 Z"/>
</g>
<g fill="#6D42A8" fill-opacity="1.00" stroke="None">
<path d="
M 291.00 736.00 
C 282.57 741.05 285.10 755.49 285.00 766.00 C 284.90 776.51 284.37 788.94 284.00 799.00 C 283.63 809.06 283.04 823.74 282.00 833.00 C 280.96 842.26 279.47 857.87 290.32 858.66 C 301.17 859.46 297.10 840.80 296.98 832.02 C 296.86 823.25 295.03 810.62 294.00 801.00 C 292.97 791.39 293.68 778.44 292.99 768.01 C 292.30 757.58 291.75 745.90 291.00 736.00 Z"/>
</g>
<g fill="#6D42A8" fill-opacity="1.00" stroke="None">
<path d="
M 669.00 769.00 
C 669.00 769.00 668.77 768.16 669.00 768.00
C 666.12 770.32 660.75 771.03 660.00 775.00
C 662.38 772.78 667.63 772.19 669.00 769.00 Z"/>
</g>
<g fill="#6D42A8" fill-opacity="1.00" stroke="None">
<path d="
M 809.00 796.00 
C 803.81 808.60 803.13 826.23 804.00 841.00 C 804.87 855.77 801.83 876.06 803.07 889.92 C 804.31 903.79 795.18 923.29 812.00 924.00
C 820.23 912.64 815.73 897.41 816.00 883.00 C 816.27 868.59 814.38 850.45 815.00 836.00 C 815.61 821.56 811.42 810.07 809.00 796.00 Z"/>
</g>
<g fill="#6D42A8" fill-opacity="1.00" stroke="None">
<path d="
M 23.00 864.00 
C 22.28 864.47 20.74 864.12 21.00 864.00
C 19.42 866.23 16.91 868.92 17.00 872.00
C 19.59 870.02 21.11 866.76 23.00 864.00 Z"/>
</g>
</svg>